<?xml version="1.0" standalone="no"?>
<!DOCTYPE svg PUBLIC "-//W3C//DTD SVG 20010904//EN"
 "http://www.w3.org/TR/2001/REC-SVG-20010904/DTD/svg10.dtd">
<svg version="1.0" xmlns="http://www.w3.org/2000/svg"
 width="1080.000000pt" height="1080.000000pt" viewBox="0 0 1080.000000 1080.000000"
 preserveAspectRatio="xMidYMid meet">

<g transform="translate(0.000000,1080.000000) scale(0.100000,-0.100000)"
fill="#000000" stroke="none">
<path d="M1738 10493 c7 -3 16 -2 19 1 4 3 -2 6 -13 5 -11 0 -14 -3 -6 -6z"/>
<path d="M488 10463 c7 -3 16 -2 19 1 4 3 -2 6 -13 5 -11 0 -14 -3 -6 -6z"/>
<path d="M387 10334 c-2 -47 -1 -98 3 -112 6 -18 9 12 9 86 1 61 -1 112 -3
112 -2 0 -6 -39 -9 -86z"/>
<path d="M7728 10393 c7 -3 16 -2 19 1 4 3 -2 6 -13 5 -11 0 -14 -3 -6 -6z"/>
<path d="M7788 10393 c12 -2 32 -2 45 0 12 2 2 4 -23 4 -25 0 -35 -2 -22 -4z"/>
<path d="M7885 10391 c-3 -5 18 -9 49 -9 31 1 53 5 50 10 -7 11 -91 10 -99 -1z"/>
<path d="M8130 10390 c0 -5 5 -10 11 -10 5 0 7 5 4 10 -3 6 -8 10 -11 10 -2 0
-4 -4 -4 -10z"/>
<path d="M10213 10393 c15 -2 37 -2 50 0 12 2 0 4 -28 4 -27 0 -38 -2 -22 -4z"/>
<path d="M8318 10383 c7 -3 16 -2 19 1 4 3 -2 6 -13 5 -11 0 -14 -3 -6 -6z"/>
<path d="M8363 10383 c9 -2 25 -2 35 0 9 3 1 5 -18 5 -19 0 -27 -2 -17 -5z"/>
<path d="M8450 10381 c0 -5 9 -7 20 -4 11 3 20 7 20 9 0 2 -9 4 -20 4 -11 0
-20 -4 -20 -9z"/>
<path d="M8513 10383 c9 -2 23 -2 30 0 6 3 -1 5 -18 5 -16 0 -22 -2 -12 -5z"/>
<path d="M9008 10379 c12 -4 32 -5 45 0 17 7 13 9 -23 9 -36 0 -40 -2 -22 -9z"/>
<path d="M3671 10224 c0 -11 3 -14 6 -6 3 7 2 16 -1 19 -3 4 -6 -2 -5 -13z"/>
<path d="M1390 10214 c-14 -7 -40 -14 -58 -14 -39 0 -107 -32 -115 -55 -8 -18
0 -19 33 0 14 8 50 15 80 16 l55 2 -45 6 c-33 4 -40 8 -27 14 31 12 64 8 78
-10 15 -17 78 -47 85 -40 3 2 -2 17 -10 33 -8 16 -17 37 -20 47 -6 20 -21 20
-56 1z"/>
<path d="M9991 10217 c2 -1 13 -9 24 -17 19 -14 19 -14 6 3 -7 9 -18 17 -24
17 -6 0 -8 -1 -6 -3z"/>
<path d="M386 10155 c4 -8 8 -15 10 -15 2 0 4 7 4 15 0 8 -4 15 -10 15 -5 0
-7 -7 -4 -15z"/>
<path d="M9590 10155 c0 -2 15 -12 33 -20 l32 -16 -25 20 c-24 20 -40 26 -40
16z"/>
<path d="M9318 10113 c7 -3 16 -2 19 1 4 3 -2 6 -13 5 -11 0 -14 -3 -6 -6z"/>
<path d="M9530 10093 c10 -4 4 -10 -20 -19 -19 -7 -27 -13 -18 -13 9 -1 29 4
43 11 18 8 22 14 13 20 -7 4 -17 7 -23 7 -5 0 -3 -3 5 -6z"/>
<path d="M9195 10080 c-16 -7 -17 -9 -3 -9 9 -1 20 4 23 9 7 11 7 11 -20 0z"/>
<path d="M2499 10031 c15 -26 65 -61 88 -60 16 0 16 1 -2 8 -11 5 -29 19 -40
31 -11 12 -28 26 -38 32 -16 8 -17 7 -8 -11z"/>
<path d="M9017 10035 c-8 -8 -16 -12 -18 -11 -2 2 -12 -12 -22 -33 -10 -20
-15 -31 -10 -26 4 6 24 27 42 48 33 35 39 54 8 22z"/>
<path d="M9410 10040 c-13 -9 -13 -10 0 -10 8 0 22 5 30 10 13 9 13 10 0 10
-8 0 -22 -5 -30 -10z"/>
<path d="M9918 9737 l3 -300 -115 6 c-63 3 -185 17 -273 31 -221 35 -422 55
-453 43 -14 -5 -59 -6 -101 -2 -44 3 -86 2 -103 -4 -23 -9 -30 -8 -49 13 -12
13 -58 36 -102 51 -44 15 -100 37 -125 50 -25 12 -70 28 -100 35 -30 7 -63 19
-72 27 -9 8 -22 12 -29 7 -8 -5 -10 -3 -4 6 6 10 -2 12 -41 7 -34 -5 -44 -4
-34 3 11 7 6 8 -18 4 -22 -5 -38 -2 -50 9 -17 15 -72 13 -72 -3 0 -19 -74 -32
-140 -26 -37 4 -90 4 -117 0 l-50 -6 -1 -477 c-1 -262 2 -516 6 -566 6 -60 5
-92 -2 -97 -6 -4 -8 -10 -4 -13 8 -8 41 -8 443 -6 193 0 458 -2 590 -6 233 -8
1033 -9 1040 -2 4 5 9 1467 5 1491 -2 9 -10 18 -19 21 -14 3 -16 -26 -13 -296z
m-1633 -107 c-3 -5 -2 -10 2 -10 5 0 8 -33 6 -72 -1 -53 0 -65 6 -43 5 17 9
50 10 74 l1 44 52 -7 c63 -9 89 -22 150 -75 70 -62 98 -129 98 -235 0 -76 -3
-91 -32 -147 -64 -124 -181 -187 -324 -176 -153 11 -256 100 -283 242 -25 133
67 298 203 366 33 17 50 28 36 25 -71 -16 -75 -16 -41 0 19 9 47 14 62 12 16
-3 26 -1 23 4 -3 4 4 8 16 8 12 0 18 -4 15 -10z m130 0 c13 -6 2 -7 -30 -3
-27 3 -52 7 -54 9 -9 8 65 2 84 -6z m-372 -102 c-28 -29 -62 -75 -76 -103
l-26 -50 3 50 c5 67 4 65 21 65 8 0 15 6 15 13 0 27 58 67 110 76 2 1 -19 -23
-47 -51z m1403 -67 c126 -16 250 -35 275 -40 24 -6 82 -11 129 -11 l85 0 0
-399 c0 -220 -3 -402 -6 -406 -12 -12 -30 120 -29 204 3 137 -10 462 -21 502
-16 65 -4 61 -424 130 -137 23 -268 45 -290 50 l-40 8 45 -4 c25 -2 149 -17
276 -34z m-545 -97 c7 -4 18 1 26 11 7 11 13 15 13 9 0 -5 -7 -17 -14 -27 -10
-13 -11 -28 -5 -55 7 -34 6 -35 -7 -18 -8 11 -14 24 -14 29 0 4 -9 5 -20 2
-18 -6 -20 -2 -20 38 0 49 11 68 21 38 4 -10 13 -22 20 -27z m-974 -36 c-3 -8
-6 -5 -6 6 -1 11 2 17 5 13 3 -3 4 -12 1 -19z m1003 -114 c0 -33 -13 -44 -52
-44 -27 0 -19 8 13 13 13 2 25 11 27 20 4 20 -37 34 -49 16 -6 -10 -9 -8 -9 8
0 18 5 21 35 20 32 -2 35 -5 35 -33z m-53 -121 c-3 -10 -5 -4 -5 12 0 17 2 24
5 18 2 -7 2 -21 0 -30z m40 -15 c-2 -13 -4 -5 -4 17 -1 22 1 32 4 23 2 -10 2
-28 0 -40z m8 -58 c3 -5 -3 -10 -14 -10 -11 0 -23 5 -26 10 -3 6 3 10 14 10
11 0 23 -4 26 -10z m2 -42 c-3 -8 -6 -5 -6 6 -1 11 2 17 5 13 3 -3 4 -12 1
-19z m823 -63 c0 -19 -63 -189 -100 -270 -26 -56 -70 -111 -70 -88 0 6 9 30
20 54 28 63 25 80 -8 43 -15 -17 -35 -45 -44 -63 -10 -17 -25 -34 -34 -38 -23
-9 -437 17 -448 28 -6 5 -1 9 12 9 27 0 59 48 117 175 22 50 49 105 58 122
l17 33 188 3 c103 1 211 3 240 5 41 2 52 -1 52 -13z m-1427 -62 c-7 -2 -19 -2
-25 0 -7 3 -2 5 12 5 14 0 19 -2 13 -5z m70 0 c-7 -2 -19 -2 -25 0 -7 3 -2 5
12 5 14 0 19 -2 13 -5z m105 -42 c2 -13 -2 -28 -10 -32 -7 -5 -75 -9 -151 -9
l-137 0 -12 26 c-10 21 -9 27 3 35 8 5 79 8 159 6 144 -2 145 -2 148 -26z
m422 -235 c0 -18 -27 -28 -53 -20 -20 6 -20 7 -2 20 24 18 55 18 55 0z m1010
-8 c0 -18 -2 -20 -9 -8 -6 8 -7 18 -5 22 9 14 14 9 14 -14z"/>
<path d="M8229 9430 c-9 -5 -20 -29 -23 -54 -6 -38 -2 -53 23 -102 17 -31 31
-66 32 -78 0 -15 4 -12 14 14 18 46 18 50 1 44 -9 -3 -20 10 -32 40 -12 28
-21 40 -26 33 -5 -7 -8 -2 -8 13 0 39 25 69 52 62 l23 -6 -24 -6 c-14 -3 -26
-10 -28 -16 -4 -13 40 -13 49 0 5 7 22 3 50 -12 30 -16 37 -18 22 -5 -12 10
-30 23 -40 30 -17 10 -17 11 6 7 22 -3 6 2 -60 23 -13 4 -13 5 0 13 13 9 13
10 0 10 -8 -1 -22 -5 -31 -10z"/>
<path d="M8380 9337 c0 -2 15 -16 33 -33 l32 -29 -29 33 c-28 30 -36 37 -36
29z"/>
<path d="M7981 9293 c-1 -12 4 -25 9 -28 12 -7 12 2 0 30 -8 19 -9 19 -9 -2z"/>
<path d="M8514 9285 c26 -24 46 -26 46 -3 0 6 -3 8 -7 5 -3 -4 -11 -3 -17 2
-6 4 -20 11 -30 15 -15 5 -13 0 8 -19z"/>
<path d="M8301 9123 c-1 -25 -16 -31 -24 -10 -3 7 -6 6 -6 -5 -1 -9 4 -20 9
-23 20 -12 11 -45 -12 -45 -16 0 -19 -3 -11 -11 21 -21 41 -1 48 45 4 25 5 51
2 58 -3 7 -6 3 -6 -9z"/>
<path d="M3070 10009 c-14 -11 -54 -24 -90 -31 -89 -15 -103 -32 -20 -23 36 4
74 11 85 15 11 4 45 5 76 3 65 -6 89 11 29 21 -21 3 -43 12 -47 20 -7 11 -13
10 -33 -5z"/>
<path d="M9340 10010 c-8 -5 -10 -10 -5 -10 6 0 17 5 25 10 8 5 11 10 5 10 -5
0 -17 -5 -25 -10z"/>
<path d="M3271 9996 c10 -8 89 -13 83 -5 -3 5 -24 9 -46 9 -23 0 -39 -2 -37
-4z"/>
<path d="M9289 9983 c-13 -17 -13 -17 6 -3 11 8 22 16 24 17 2 2 0 3 -6 3 -6
0 -17 -8 -24 -17z"/>
<path d="M391 9974 c0 -11 3 -14 6 -6 3 7 2 16 -1 19 -3 4 -6 -2 -5 -13z"/>
<path d="M9253 9973 c4 -3 1 -13 -6 -22 -11 -14 -10 -14 5 -2 16 12 16 31 1
31 -4 0 -3 -3 0 -7z"/>
<path d="M8945 9939 c-4 -6 -5 -12 -2 -15 2 -3 7 2 10 11 7 17 1 20 -8 4z"/>
<path d="M2285 9925 c-38 -7 -106 -22 -150 -33 -144 -37 -265 -55 -324 -49
-30 3 -57 10 -59 15 -1 5 -13 7 -26 5 l-24 -5 20 -49 c12 -27 19 -52 16 -54
-3 -3 -38 -9 -79 -15 -41 -5 -101 -18 -134 -29 -76 -26 -127 -27 -148 -3 -21
23 -21 35 -2 72 14 26 21 30 60 30 25 0 45 2 45 4 0 2 3 12 6 20 6 14 0 16
-37 10 -56 -9 -76 -19 -84 -44 -8 -25 -20 -25 -45 0 -27 27 -25 33 5 26 14 -4
25 -2 25 2 0 14 -137 23 -217 16 -55 -5 -81 -3 -113 10 -41 16 -107 16 -210
-1 -33 -5 -34 -6 -11 -14 15 -6 55 -5 107 2 84 12 141 6 99 -11 -11 -4 26 -6
82 -4 113 4 105 10 118 -75 7 -40 6 -43 -11 -37 -119 47 -304 91 -304 72 0 -8
55 -30 180 -73 58 -19 110 -39 115 -43 24 -19 391 -14 429 5 21 11 61 13 174
10 81 -2 137 -2 124 1 -26 6 -20 24 9 24 11 0 53 15 92 34 40 18 86 39 102 47
28 12 29 13 7 17 -14 2 -20 8 -15 15 4 6 -6 2 -21 -11 -30 -23 -52 -29 -41
-12 3 6 -1 10 -9 10 -32 0 -15 19 27 29 23 5 76 21 117 34 41 13 104 33 140
45 75 23 65 25 -35 7z m-991 -155 c46 -49 62 -88 30 -76 -9 3 -31 6 -49 6 -30
0 -34 3 -33 28 0 15 -2 42 -6 60 -10 45 3 41 58 -18z"/>
<path d="M5660 9910 c-74 -8 -157 -28 -235 -57 -28 -10 -98 -16 -241 -19
l-202 -4 -21 35 c-18 32 -25 35 -58 33 -22 -1 -56 -14 -79 -30 -48 -32 -125
-38 -161 -13 -25 18 -50 11 -59 -17 -13 -42 0 -43 384 -41 l367 2 100 31 c166
52 290 49 446 -9 108 -41 235 -145 277 -228 41 -80 50 -414 13 -498 -22 -50
-65 -102 -100 -120 l-27 -14 25 51 c22 44 26 68 29 172 l4 121 -56 111 c-45
90 -67 122 -116 167 -190 176 -515 209 -720 73 -38 -25 -58 -29 -248 -47 -117
-12 -153 -8 -122 11 22 13 4 24 -41 25 -30 1 -39 -2 -37 -14 2 -8 14 -18 28
-21 24 -6 23 -7 -9 -13 -18 -4 -62 -7 -96 -7 -71 0 -75 4 -75 76 l0 44 123 1
c181 2 310 12 314 26 3 8 -62 10 -256 6 -173 -4 -261 -3 -261 4 0 6 19 15 43
20 41 10 41 11 -30 12 -40 0 -84 -4 -98 -11 l-25 -11 0 -331 c0 -182 3 -341 6
-354 4 -15 25 -32 63 -50 53 -26 65 -27 222 -30 92 -2 215 1 273 7 96 8 109 8
146 -10 52 -25 189 -112 217 -137 13 -12 42 -22 70 -25 26 -3 73 -11 103 -17
69 -15 193 -8 325 20 165 34 244 82 341 209 73 96 103 170 116 290 6 53 12 97
13 99 5 6 202 -81 253 -112 63 -38 164 -138 201 -199 13 -21 26 -36 28 -33 9
8 -57 106 -107 160 -58 64 -142 118 -242 156 -118 46 -116 44 -104 100 7 35 6
56 -4 80 -15 37 -78 80 -117 80 -23 0 -37 13 -78 67 -114 153 -269 209 -505
183z m-732 -52 c26 -26 13 -38 -43 -38 -59 0 -68 10 -33 34 27 19 59 21 76 4z
m-346 -148 c18 0 19 -11 17 -335 l-2 -335 -21 5 c-12 4 -38 13 -58 22 l-38 16
-2 126 c-1 69 -2 213 -3 320 l-1 193 44 -6 c25 -3 53 -6 64 -6z m1680 -100
c32 -33 33 -53 2 -58 -15 -2 -25 9 -42 43 -18 38 -19 45 -6 45 9 0 29 -14 46
-30z m-671 -7 c74 -37 139 -105 179 -187 30 -60 35 -81 38 -162 5 -103 -12
-174 -52 -229 -37 -50 -41 -61 -11 -35 53 47 84 160 85 305 0 71 2 86 13 76 8
-8 12 -50 12 -134 0 -122 0 -123 -31 -162 -17 -22 -38 -54 -47 -71 -46 -89
-214 -166 -292 -133 l-30 12 40 8 c22 4 62 18 90 32 27 14 54 23 60 20 5 -4 7
-3 3 2 -4 4 12 30 37 56 25 27 45 56 45 66 -1 17 -2 17 -15 -1 -18 -23 -16
-35 -15 149 0 107 -2 125 -24 170 -13 28 -46 72 -72 99 -69 68 -132 98 -222
104 -58 4 -70 7 -61 18 13 16 42 21 140 23 63 1 83 -3 130 -26z m-436 -11 c-6
-5 -30 -17 -55 -26 -54 -21 -107 -69 -126 -113 -9 -20 -14 -70 -14 -132 0
-113 19 -178 71 -243 l30 -38 -33 -2 c-18 -1 -49 -3 -68 -4 -298 -18 -302 -18
-316 1 -11 15 -14 73 -14 261 l0 241 148 8 c177 8 253 18 307 39 44 17 85 21
70 8z m395 -129 c19 -15 43 -36 53 -47 27 -31 57 -98 56 -126 0 -23 -1 -23 -9
-5 l-9 20 -1 -20 c0 -12 -13 6 -30 43 -29 62 -55 86 -70 63 -4 -8 -9 -2 -13
18 -7 36 -77 91 -114 91 -52 0 -93 -79 -93 -178 0 -167 91 -304 205 -306 24
-1 38 -4 32 -8 -18 -11 -135 -9 -142 2 -3 6 -11 10 -17 10 -6 0 -3 -10 8 -21
l19 -22 -52 7 c-103 13 -154 51 -168 122 -8 43 1 57 14 23 5 -13 23 -39 40
-56 24 -27 37 -33 71 -33 l41 0 -18 28 c-71 103 -102 274 -67 362 18 44 76 92
100 83 8 -3 14 0 14 5 0 15 109 -25 150 -55z m712 -45 c-2 -43 -8 -78 -13 -78
-10 0 -12 113 -3 148 12 44 21 7 16 -70z m33 -78 c-4 -30 -20 -90 -37 -133
-31 -82 -45 -98 -27 -33 6 21 8 44 5 52 -8 20 5 105 14 99 13 -8 22 28 22 85
l-1 55 15 -35 c12 -25 14 -49 9 -90z m-245 20 c0 -13 -1 -13 -10 0 -5 8 -10
22 -10 30 0 13 1 13 10 0 5 -8 10 -22 10 -30z m27 -102 c-3 -8 -6 -5 -6 6 -1
11 2 17 5 13 3 -3 4 -12 1 -19z m-410 -55 c-3 -10 -5 -4 -5 12 0 17 2 24 5 18
2 -7 2 -21 0 -30z m423 -21 c0 -45 -24 -140 -50 -198 -22 -51 -63 -75 -176
-102 -88 -22 -216 -43 -222 -37 -2 2 33 15 79 30 109 34 172 69 234 130 60 59
87 111 93 182 4 48 6 51 23 42 13 -7 19 -21 19 -47z m-493 -137 c-23 -22 -33
-18 -12 5 10 11 20 18 23 16 2 -3 -3 -12 -11 -21z"/>
<path d="M5684 8964 c-18 -14 -18 -15 4 -4 12 6 22 13 22 15 0 8 -5 6 -26 -11z"/>
<path d="M7470 9789 c1 -33 3 -40 10 -27 11 17 9 53 -3 64 -4 4 -7 -13 -7 -37z"/>
<path d="M8885 9819 c-4 -6 -5 -12 -2 -15 2 -3 7 2 10 11 7 17 1 20 -8 4z"/>
<path d="M1412 9758 c4 -29 54 -39 64 -13 8 20 7 21 -34 30 -31 6 -33 5 -30
-17z"/>
<path d="M8910 9761 c16 -13 20 -21 11 -21 -18 0 -8 -11 14 -14 9 -1 20 -9 25
-16 5 -8 12 -11 16 -7 9 8 -32 50 -66 66 l-25 12 25 -20z"/>
<path d="M2270 9714 c-47 -7 -134 -13 -195 -14 -60 0 -117 -5 -125 -11 -17
-11 324 -4 343 8 6 4 61 12 122 19 l110 12 -85 0 c-47 0 -123 -6 -170 -14z"/>
<path d="M9523 9663 c9 -2 25 -2 35 0 9 3 1 5 -18 5 -19 0 -27 -2 -17 -5z"/>
<path d="M9128 9643 c6 -2 18 -2 25 0 6 3 1 5 -13 5 -14 0 -19 -2 -12 -5z"/>
<path d="M9625 9640 c3 -5 8 -10 11 -10 2 0 4 5 4 10 0 6 -5 10 -11 10 -5 0
-7 -4 -4 -10z"/>
<path d="M9180 9600 c-25 -5 -54 -6 -64 -3 -16 4 -18 1 -13 -18 4 -13 7 -27 7
-31 0 -15 20 -8 20 7 0 14 21 22 115 44 35 8 36 9 10 9 -16 0 -50 -4 -75 -8z"/>
<path d="M10351 9568 c0 -28 2 -30 9 -13 12 28 12 45 0 45 -5 0 -10 -15 -9
-32z"/>
<path d="M1458 9539 c-45 -10 -123 -49 -236 -118 -46 -27 -122 -65 -168 -82
-82 -31 -111 -49 -80 -49 25 0 134 44 235 94 51 26 99 45 106 42 7 -2 26 -1
42 4 l28 8 -35 1 -35 1 25 21 c40 32 92 56 137 64 l41 6 126 -123 c140 -137
165 -179 174 -285 5 -61 13 -76 28 -51 5 7 3 8 -7 3 -11 -7 -11 -5 1 11 21 26
38 44 43 44 2 0 15 -9 28 -21 20 -17 24 -30 24 -75 0 -40 4 -54 14 -54 8 0 12
-2 9 -5 -2 -3 -36 2 -74 10 -38 8 -73 15 -77 15 -4 0 -3 9 3 19 18 35 10 37
-16 3 -37 -47 -96 -84 -215 -135 -100 -42 -311 -109 -390 -122 -22 -4 -47 -2
-60 5 -62 32 -252 187 -402 326 l-67 64 20 20 c11 11 26 20 33 20 7 0 44 16
83 35 38 19 81 35 95 35 14 0 34 7 45 15 58 44 -157 -19 -278 -81 -43 -22 -62
-57 -47 -86 22 -42 49 -162 37 -169 -7 -5 -7 -9 1 -13 6 -4 11 -15 11 -25 0
-10 9 -26 19 -35 19 -18 37 -61 20 -50 -5 3 -9 1 -9 -4 0 -5 30 -30 68 -55 37
-25 76 -54 86 -66 11 -12 24 -21 31 -21 6 0 26 -15 44 -34 53 -54 81 -62 150
-41 48 14 67 15 109 6 44 -9 59 -8 110 11 l59 21 39 -31 c38 -30 184 -113 414
-236 63 -34 131 -72 150 -84 19 -12 44 -22 56 -22 45 0 308 153 358 209 11 12
35 31 53 42 19 12 32 23 29 26 -6 7 -52 -18 -200 -112 -159 -99 -208 -125
-237 -125 -13 0 -66 24 -118 54 -53 29 -172 96 -264 147 -93 52 -190 111 -217
131 l-48 36 -51 -14 c-28 -9 -65 -14 -83 -12 l-33 4 45 12 c25 8 140 61 256
119 198 99 212 104 230 89 10 -8 44 -33 74 -54 34 -23 54 -45 52 -54 -2 -12 3
-15 18 -11 13 4 35 -7 67 -35 113 -94 174 -106 263 -50 50 31 51 31 116 19 37
-6 68 -10 71 -7 2 2 -26 14 -63 26 l-67 23 74 27 c41 15 121 50 178 78 l105
50 -160 163 c-88 90 -189 202 -223 248 -55 75 -60 86 -44 92 22 8 264 29 335
29 32 0 55 6 65 16 15 15 12 16 -43 11 -32 -3 -156 -10 -274 -16 -118 -6 -285
-15 -370 -20 -85 -4 -167 -5 -182 0 -16 4 -66 37 -113 73 -47 36 -91 66 -98
65 -6 -1 -29 -5 -49 -10z m420 -185 c12 -8 27 -12 34 -8 8 5 9 2 4 -11 -5 -15
-4 -16 8 -5 13 10 15 7 13 -19 -1 -17 -6 -31 -12 -31 -5 0 -1 -7 9 -15 11 -8
17 -18 13 -21 -4 -4 3 -17 16 -29 12 -11 23 -28 25 -36 2 -7 8 -15 13 -17 5
-2 9 -9 9 -15 0 -7 -12 2 -27 18 -16 16 -28 32 -28 35 0 3 -10 15 -22 27 -12
12 -34 41 -48 63 -14 22 -40 50 -58 60 l-32 20 30 0 c17 0 41 -7 53 -16z m39
10 c-3 -3 -12 -4 -19 -1 -8 3 -5 6 6 6 11 1 17 -2 13 -5z m207 -16 c-1 -10 5
-14 15 -11 11 3 21 -5 29 -21 9 -20 9 -25 -1 -23 -6 1 -15 10 -19 20 -4 10
-12 15 -18 12 -6 -3 -13 2 -17 12 -4 10 -11 22 -17 26 -7 5 -3 7 9 5 11 -2 19
-11 19 -20z m59 -75 c-7 -2 -19 -2 -25 0 -7 3 -2 5 12 5 14 0 19 -2 13 -5z
m-133 -107 c0 -3 -4 -8 -10 -11 -5 -3 -10 -1 -10 4 0 6 5 11 10 11 6 0 10 -2
10 -4z m40 -41 c0 -12 -19 -12 -23 0 -4 9 -1 12 9 8 7 -3 14 -7 14 -8z m-141
-165 c41 0 48 -3 64 -31 10 -18 16 -33 14 -35 -2 -2 -20 8 -42 23 -26 18 -58
28 -101 32 -35 4 -67 11 -71 15 -4 5 14 6 41 2 27 -3 70 -6 95 -6z m-1231 -98
c33 -43 24 -41 -18 5 -19 20 -28 34 -21 32 8 -3 25 -19 39 -37z m320 -133 l74
-33 -37 -18 c-35 -18 -38 -18 -63 -2 -47 29 -81 66 -75 81 3 8 11 12 17 9 6
-2 44 -19 84 -37z m1068 -38 c-3 -5 -15 -7 -26 -4 -28 7 -25 13 6 13 14 0 23
-4 20 -9z"/>
<path d="M2864 9508 c-85 -57 -84 -55 -85 -454 -1 -192 -4 -341 -8 -331 -6 16
-8 16 -24 -3 -9 -11 -22 -20 -29 -20 -7 0 -24 -17 -37 -37 -32 -49 -32 -110
-1 -135 32 -26 48 -22 22 5 -43 46 -18 118 47 134 19 5 30 0 48 -23 12 -16 28
-42 34 -57 11 -27 15 -29 56 -24 24 2 43 3 43 1 0 -1 -4 -14 -10 -29 -7 -19
-6 -35 4 -60 12 -27 22 -35 52 -41 54 -10 388 2 412 15 13 7 22 25 26 53 9 73
19 463 11 456 -5 -4 -12 -97 -16 -205 -5 -109 -11 -210 -15 -226 -10 -49 -43
-57 -242 -57 -161 0 -181 2 -195 18 -40 44 -13 87 61 96 l52 7 0 -31 c0 -27
-3 -30 -42 -37 l-43 -7 39 -7 c59 -10 72 -3 82 44 9 41 10 42 59 47 59 7 91
23 100 50 7 21 -10 60 -25 60 -13 0 0 61 16 81 16 18 18 39 4 39 -5 0 -12 16
-16 35 -5 30 -9 34 -21 23 -13 -10 -14 -8 -11 12 3 25 28 38 138 71 43 13 45
16 54 62 9 54 -3 97 -29 97 -12 0 -14 14 -13 78 1 67 -2 82 -24 117 -56 87
-149 157 -257 193 -96 33 -158 29 -217 -10z m209 -18 c69 -21 154 -79 221
-148 33 -35 37 -43 26 -57 -11 -13 -22 -6 -87 56 -81 76 -188 136 -263 146
-22 3 -40 10 -40 14 0 16 76 10 143 -11z m-73 -31 c92 -21 188 -83 240 -155
29 -41 67 -162 57 -186 -2 -7 -39 -30 -80 -51 -53 -27 -88 -53 -117 -87 -22
-26 -64 -62 -93 -78 -65 -37 -78 -52 -87 -103 -14 -75 43 -102 114 -54 43 29
46 30 46 11 0 -7 7 -19 15 -26 23 -19 18 -56 -11 -79 -21 -17 -41 -21 -97 -21
l-69 0 26 35 c15 19 22 35 17 35 -6 0 -21 -16 -33 -35 -18 -28 -29 -35 -55
-35 -22 0 -36 6 -43 20 -12 23 -21 487 -11 605 l7 80 17 -37 c14 -31 17 -73
17 -260 l1 -223 24 -18 25 -18 -10 26 c-6 15 -10 135 -10 275 0 210 -2 251
-15 264 -9 8 -22 13 -30 10 -11 -5 -15 1 -15 19 0 81 60 111 170 86z m332
-228 c2 -17 1 -28 -4 -25 -8 5 -12 54 -4 54 2 0 6 -13 8 -29z m48 -170 c0 -34
-9 -42 -75 -66 -65 -23 -110 -57 -149 -112 -24 -35 -36 -43 -54 -40 -14 3 -21
0 -19 -7 2 -6 22 -12 45 -14 23 -2 42 -7 42 -11 0 -13 -84 -32 -88 -20 -2 5
-19 -2 -38 -16 -46 -35 -88 -31 -92 9 -4 36 37 82 88 97 26 8 44 23 63 53 14
23 37 52 50 64 22 21 184 90 215 91 7 1 12 -11 12 -28z m-190 -300 c0 -20 -36
-71 -51 -71 -10 0 -13 73 -2 83 3 4 17 7 30 7 16 0 23 -6 23 -19z m40 -91 c0
-26 -35 -48 -65 -42 -38 7 -30 29 20 55 34 17 45 14 45 -13z"/>
<path d="M6982 9045 c0 -16 2 -22 5 -12 2 9 2 23 0 30 -3 6 -5 -1 -5 -18z"/>
<path d="M6710 9004 c-28 -20 -31 -24 -14 -24 20 0 62 35 53 44 -2 2 -20 -7
-39 -20z"/>
<path d="M6685 8918 c-128 -139 -149 -158 -223 -198 -42 -23 -68 -38 -57 -34
96 33 169 67 220 100 50 32 56 39 38 42 -34 5 -28 17 27 52 59 38 100 100 67
100 -8 0 -40 -28 -72 -62z"/>
<path d="M4160 8916 c0 -2 8 -10 18 -17 15 -13 16 -12 3 4 -13 16 -21 21 -21
13z"/>
<path d="M4515 8778 c22 -12 43 -21 48 -20 4 1 7 -2 7 -7 0 -16 138 -71 255
-101 115 -29 330 -57 500 -65 89 -4 74 -1 -125 29 -138 21 -362 69 -445 95
-33 11 -107 36 -164 55 -119 41 -132 44 -76 14z"/>
<path d="M413 8740 c0 -25 2 -35 4 -22 2 12 2 32 0 45 -2 12 -4 2 -4 -23z"/>
<path d="M2255 8670 c17 -4 46 -8 65 -8 28 -1 31 1 15 8 -11 5 -40 8 -65 8
-41 0 -42 -1 -15 -8z"/>
<path d="M2382 8608 c-17 -17 -15 -33 3 -18 12 10 18 10 32 -1 15 -12 16 -12
10 4 -4 10 -7 21 -7 23 0 9 -27 3 -38 -8z"/>
<path d="M2320 8596 c0 -8 4 -17 9 -20 5 -4 7 3 4 14 -6 23 -13 26 -13 6z"/>
<path d="M7142 8489 c-6 -23 -5 -37 2 -42 7 -5 5 -11 -7 -18 -10 -6 -33 -43
-51 -82 -48 -104 -62 -152 -45 -162 5 -4 9 -1 9 4 0 17 27 13 34 -5 3 -9 6
-27 6 -40 0 -14 4 -22 10 -19 6 3 10 1 10 -6 0 -10 3 -10 12 -1 7 7 21 12 33
13 11 0 14 3 8 6 -15 6 -17 39 -3 48 6 3 11 -4 11 -17 1 -19 3 -18 8 7 4 17 3
38 -2 49 -6 13 -6 16 3 11 9 -5 11 25 8 124 -2 106 -6 133 -20 147 -16 16 -17
15 -26 -17z"/>
<path d="M7513 8193 c9 -2 23 -2 30 0 6 3 -1 5 -18 5 -16 0 -22 -2 -12 -5z"/>
<path d="M9233 8183 c9 -2 25 -2 35 0 9 3 1 5 -18 5 -19 0 -27 -2 -17 -5z"/>
<path d="M9408 8183 c17 -2 47 -2 65 0 17 2 3 4 -33 4 -36 0 -50 -2 -32 -4z"/>
<path d="M9608 8183 c28 -2 76 -2 105 0 28 2 5 3 -53 3 -58 0 -81 -1 -52 -3z"/>
<path d="M9798 8183 c6 -2 18 -2 25 0 6 3 1 5 -13 5 -14 0 -19 -2 -12 -5z"/>
<path d="M9873 8183 c15 -2 37 -2 50 0 12 2 0 4 -28 4 -27 0 -38 -2 -22 -4z"/>
<path d="M10003 8183 c9 -2 25 -2 35 0 9 3 1 5 -18 5 -19 0 -27 -2 -17 -5z"/>
<path d="M10073 8183 c9 -2 23 -2 30 0 6 3 -1 5 -18 5 -16 0 -22 -2 -12 -5z"/>
<path d="M7006 8165 c-11 -29 -7 -37 10 -20 11 11 13 20 7 26 -7 7 -12 5 -17
-6z"/>
<path d="M6590 8143 c0 -15 -2 -16 -10 -3 -8 13 -10 12 -10 -2 0 -15 9 -18 52
-18 49 0 51 1 35 17 -13 13 -19 15 -29 5 -14 -14 -32 -16 -23 -3 3 5 1 12 -5
16 -5 3 -10 -2 -10 -12z"/>
<path d="M4192 8137 c-12 -7 -20 -16 -17 -19 4 -3 -1 -5 -11 -4 -11 0 -18 -7
-19 -22 -1 -12 -10 -29 -21 -36 -11 -8 -15 -18 -10 -23 5 -4 11 -2 13 5 3 6 9
10 14 6 5 -3 9 5 9 16 0 16 4 20 16 16 8 -3 12 -2 9 4 -3 6 1 13 10 16 9 4 14
13 11 20 -3 8 -2 13 2 13 18 -3 32 2 32 11 0 13 -10 12 -38 -3z"/>
<path d="M6855 8130 c-25 -11 1 -11 35 0 20 6 21 8 5 8 -11 0 -29 -3 -40 -8z"/>
<path d="M4609 8037 c-90 -137 -119 -234 -84 -284 13 -18 13 -33 4 -95 -23
-153 -17 -141 -89 -159 -84 -20 -106 -33 -126 -71 -20 -38 -14 -84 21 -170 36
-89 67 -125 114 -133 45 -8 51 -19 51 -112 l0 -62 46 -7 c55 -8 58 -14 73
-145 13 -103 29 -130 80 -128 26 0 26 0 -6 16 -18 9 -34 22 -37 28 -7 18 -38
236 -34 240 7 8 212 27 249 23 35 -3 38 -2 23 9 -23 17 -75 16 -199 -2 -55 -8
-114 -15 -131 -15 l-31 0 -6 88 c-5 71 -3 101 14 164 24 87 47 114 104 123
l40 6 32 -70 c37 -83 67 -103 152 -104 92 -1 122 28 136 129 l7 52 81 21 c45
11 107 25 137 30 50 8 57 7 83 -15 19 -16 41 -24 67 -24 58 0 69 21 45 95 -10
32 16 56 67 62 40 5 47 2 66 -22 50 -63 52 -151 6 -236 -22 -40 -35 -51 -90
-74 -70 -30 -73 -36 -89 -150 -12 -85 -43 -152 -95 -204 -80 -80 -203 -126
-406 -152 -62 -7 -91 -15 -79 -19 17 -6 15 -10 -20 -27 -22 -11 -51 -24 -65
-28 -14 -4 -74 -29 -135 -55 -61 -26 -181 -65 -270 -88 -349 -90 -345 -88
-382 -124 -86 -83 -226 -456 -308 -823 -27 -122 -138 -508 -158 -552 -10 -22
-15 -24 -51 -19 -78 11 -571 65 -656 71 -138 11 -137 31 -16 -320 120 -348
153 -435 230 -602 31 -67 56 -125 56 -127 0 -12 194 -424 213 -452 24 -37 97
-87 147 -103 42 -13 164 -40 395 -87 94 -19 285 -59 425 -89 286 -62 611 -111
823 -125 125 -8 429 -13 700 -11 l89 1 -2 28 c-3 42 -2 42 36 26 28 -12 39
-13 44 -4 4 7 55 18 113 26 123 16 175 27 237 49 32 12 105 19 254 26 176 8
216 13 257 30 55 24 107 77 140 141 61 120 118 346 138 548 5 53 7 417 5 820
-4 775 -10 1043 -24 1155 -5 39 -14 113 -20 165 -13 113 -24 151 -47 166 -17
10 -76 28 -343 104 -145 42 -513 189 -602 241 -67 39 -88 65 -102 123 -19 76
-149 255 -178 243 -13 -4 -15 -13 -9 -34 4 -15 13 -28 20 -28 24 0 40 -49 41
-121 1 -175 -41 -266 -207 -450 -65 -71 -154 -172 -198 -224 -139 -162 -133
-157 -145 -140 -6 8 -17 40 -26 70 -9 30 -34 102 -56 159 -21 57 -37 109 -34
116 2 7 22 15 43 18 57 10 230 94 284 139 25 21 50 38 55 38 24 0 204 233 191
246 -2 3 -16 -15 -30 -38 -38 -66 -184 -200 -301 -277 -82 -54 -114 -70 -155
-75 -48 -6 -55 -4 -88 23 -36 30 -37 30 -66 13 -35 -20 -61 -59 -83 -124 -14
-42 -66 -98 -91 -98 -10 0 -29 67 -43 155 -14 89 4 224 33 247 12 10 25 18 28
18 4 0 14 -20 24 -45 9 -25 39 -69 66 -98 l48 -52 -20 75 c-11 41 -25 80 -30
86 -12 15 -10 16 76 44 87 28 231 100 274 135 69 59 102 126 131 269 l16 80
56 -3 c54 -2 59 0 95 36 21 21 49 60 61 86 25 54 66 189 88 292 19 89 19 264
0 333 -29 105 -115 212 -160 196 -46 -16 -345 -20 -531 -8 -104 8 -232 13
-283 14 -84 0 -95 2 -116 24 l-24 23 -53 -80z m541 -261 c-11 -33 -20 -77 -20
-98 0 -79 52 -152 116 -164 37 -7 62 -30 48 -44 -15 -15 -150 -40 -214 -40
-50 0 -60 3 -74 25 -25 38 -82 48 -235 41 -74 -4 -142 -12 -150 -17 -9 -6 0 3
19 20 33 30 34 31 10 31 -14 -1 -45 -5 -69 -9 l-44 -9 7 82 c10 132 -3 120
155 139 146 18 270 49 391 96 51 20 76 26 78 18 1 -7 -7 -39 -18 -71z m-192
-344 c6 -9 12 -39 11 -66 l-1 -51 -9 40 c-10 42 -44 85 -66 85 -8 0 -11 5 -8
10 8 14 57 1 73 -18z m-518 -58 c7 -20 26 -62 42 -92 45 -86 29 -144 -36 -128
-22 5 -35 22 -63 83 -22 46 -37 92 -37 116 -1 35 2 42 24 48 49 14 58 10 70
-27z m469 17 c10 -6 27 -34 36 -61 27 -81 -2 -130 -77 -130 -51 0 -92 32 -121
92 -14 29 -29 68 -32 87 l-7 34 90 -6 c50 -3 100 -10 111 -16z m-103 -878
c-11 -47 -17 -350 -7 -328 9 18 10 17 10 -7 1 -16 -3 -28 -9 -28 -6 0 -10 -35
-9 -87 l1 -88 12 71 c7 42 20 81 33 97 l21 27 7 -62 c3 -35 9 -76 12 -92 3
-16 1 -26 -4 -23 -5 3 -19 -10 -32 -28 -22 -32 -23 -45 -27 -222 -4 -188 -12
-299 -39 -553 -8 -74 -19 -209 -25 -300 -6 -91 -15 -232 -21 -315 -6 -82 -14
-190 -16 -240 -3 -49 -9 -94 -14 -99 -5 -6 -9 -13 -9 -17 0 -7 106 -89 116
-89 14 0 194 -95 254 -135 36 -24 88 -64 115 -90 76 -71 162 -123 239 -147 61
-19 84 -20 195 -14 69 4 171 13 226 21 55 8 141 15 191 15 81 0 98 -3 145 -28
57 -30 118 -97 178 -197 26 -43 36 -72 39 -115 4 -52 2 -60 -26 -91 -16 -19
-59 -47 -94 -63 -34 -16 -72 -33 -82 -38 -26 -14 -347 -22 -365 -10 -9 6 -17
43 -22 103 -11 127 -41 218 -85 260 -30 29 -42 34 -82 33 -26 -1 -90 -16 -142
-34 -88 -31 -105 -33 -225 -34 -137 -1 -212 9 -360 49 -49 14 -109 30 -133 35
-49 13 -113 63 -97 78 6 6 46 21 90 35 75 23 80 27 83 55 3 34 -25 97 -55 125
-19 17 -23 16 -89 -3 -38 -11 -77 -25 -86 -30 -10 -6 -25 -10 -35 -10 -16 0
-153 -76 -163 -91 -3 -4 -12 -9 -20 -11 -10 -2 -14 7 -15 31 0 29 7 39 58 78
31 24 57 48 57 53 0 5 24 16 53 26 54 18 257 112 257 120 0 3 -12 9 -26 14
-22 9 -35 5 -83 -25 -60 -37 -77 -42 -83 -23 -3 8 -18 6 -51 -10 -26 -12 -51
-22 -56 -22 -4 0 -43 -34 -84 -75 -65 -64 -97 -87 -97 -71 0 2 12 35 26 72 28
76 77 159 103 174 15 9 15 9 -1 10 -9 0 -43 -22 -75 -50 -32 -27 -66 -50 -75
-50 -17 0 -48 25 -48 39 0 15 67 70 117 95 63 31 82 32 117 5 35 -28 78 -22
86 11 5 22 12 25 58 28 l52 3 0 45 c0 54 -31 150 -66 206 -29 45 -48 100 -70
203 -34 154 -26 963 12 1250 22 168 97 449 138 520 23 38 77 84 100 85 4 0 5
-12 2 -27z m960 -100 c-16 -233 -21 -253 -176 -703 -50 -146 -109 -317 -131
-380 -55 -160 -125 -445 -169 -687 -10 -56 -40 -170 -66 -252 l-47 -150 23
-53 c18 -41 24 -77 28 -162 5 -122 9 -118 -68 -55 -25 20 -66 48 -91 63 l-47
27 -7 307 c-12 484 17 1378 49 1507 11 43 16 51 42 56 l29 7 -30 1 c-16 1 -39
8 -49 16 -18 14 -18 15 -1 42 10 15 34 48 53 71 36 46 52 44 52 -6 0 -32 46
-119 69 -132 17 -8 26 -4 55 26 20 20 62 76 95 123 64 93 103 141 254 310 137
154 142 155 133 24z m-672 -104 l1 -74 -43 4 c-36 2 -42 6 -36 20 4 9 12 34
18 57 13 46 34 76 49 71 6 -2 11 -36 11 -78z m-56 -100 c20 -7 34 -21 41 -41
14 -39 14 -58 1 -58 -5 0 -10 6 -10 14 0 8 -7 16 -15 20 -8 3 -12 12 -9 21 3
8 4 15 0 15 -3 0 -10 -19 -17 -42 -6 -23 -18 -48 -27 -55 -14 -10 -15 -13 -2
-14 8 -1 18 -1 22 -1 3 1 9 -6 12 -14 4 -12 2 -15 -9 -11 -8 4 -17 1 -21 -5
-5 -7 -2 -8 6 -3 10 6 11 1 6 -21 -4 -16 -13 -32 -19 -36 -15 -9 -50 -10 -71
-2 -18 7 -22 34 -5 34 5 0 7 -4 4 -10 -3 -5 -4 -10 -1 -10 2 0 10 -2 18 -5 9
-4 14 5 16 30 1 20 14 54 28 76 20 32 23 43 13 55 -9 11 -8 14 7 14 15 0 16 2
5 9 -9 6 -10 11 -2 15 17 11 3 26 -22 26 -26 0 -61 -27 -72 -55 -8 -19 -8 -19
-12 -2 -3 11 5 29 18 43 25 26 66 31 117 13z m3 -122 c-10 -9 -11 -8 -5 6 3
10 9 15 12 12 3 -3 0 -11 -7 -18z m-132 -239 c-12 -90 -39 -624 -38 -738 0
-60 6 -115 17 -150 l18 -54 29 39 c16 22 31 43 34 47 4 4 4 -194 3 -440 -2
-246 -5 -449 -7 -451 -7 -6 -184 81 -199 98 -23 27 -27 69 -16 177 23 232 30
314 35 419 7 126 48 635 70 867 14 138 38 248 55 248 4 0 3 -28 -1 -62z
m-1654 -978 c-3 -5 -15 -10 -26 -10 -11 0 -17 5 -14 10 3 6 15 10 26 10 11 0
17 -4 14 -10z m158 -17 c-7 -2 -21 -2 -30 0 -10 3 -4 5 12 5 17 0 24 -2 18 -5z
m50 -10 c-7 -2 -19 -2 -25 0 -7 3 -2 5 12 5 14 0 19 -2 13 -5z m60 -10 c-7 -2
-19 -2 -25 0 -7 3 -2 5 12 5 14 0 19 -2 13 -5z m268 -18 c36 -1 70 -5 76 -8 7
-4 14 -3 18 3 3 5 23 10 45 10 37 0 39 -2 55 -47 9 -27 32 -102 51 -168 19
-66 97 -309 173 -540 234 -708 246 -758 195 -791 -14 -10 -28 -13 -33 -8 -5 5
-23 54 -41 109 -18 55 -65 190 -105 300 -40 110 -136 391 -215 625 -90 270
-149 431 -161 442 -23 20 -73 31 -264 57 -77 11 -114 19 -82 17 32 -1 57 2 57
7 0 6 30 7 83 2 45 -5 111 -9 148 -10z m998 -931 c12 -15 21 -39 21 -53 0 -26
-4 -28 -151 -66 -126 -32 -152 -36 -160 -24 -5 8 -9 19 -9 26 0 6 -3 18 -6 26
-7 19 62 61 154 93 91 31 125 31 151 -2z m1274 -31 c-7 -2 -19 -2 -25 0 -7 3
-2 5 12 5 14 0 19 -2 13 -5z m-1557 -167 c28 -1 58 -7 66 -14 9 -7 53 -26 98
-43 187 -68 188 -72 35 -143 -68 -32 -147 -74 -176 -92 -28 -19 -52 -33 -53
-32 -1 2 -19 59 -40 128 -21 69 -42 135 -47 148 -13 33 -13 33 39 29 26 -3 39
-3 30 0 -9 2 -22 12 -30 20 -11 15 -11 16 7 8 11 -5 43 -9 71 -9z"/>
<path d="M6985 8110 c-3 -5 -1 -10 4 -10 6 0 11 5 11 10 0 6 -2 10 -4 10 -3 0
-8 -4 -11 -10z"/>
<path d="M7077 8092 c7 -4 9 -13 4 -20 -11 -19 -97 -12 -93 7 2 9 -3 11 -15 6
-10 -4 -30 -12 -45 -17 -16 -5 -28 -17 -29 -26 0 -11 -2 -12 -6 -4 -2 6 -12
12 -21 11 -11 0 -12 -2 -4 -6 7 -3 12 -25 12 -59 0 -45 3 -54 18 -54 26 0 30
66 5 73 -17 4 -17 5 0 6 9 0 17 7 17 14 0 8 13 12 40 10 29 -1 39 1 34 10 -4
7 5 1 21 -13 19 -17 29 -21 32 -12 3 6 13 12 24 12 11 0 19 7 19 16 0 8 4 13
9 10 11 -7 20 14 14 32 -3 6 -14 12 -26 12 -14 0 -18 -3 -10 -8z m-92 -32 c3
-5 -1 -10 -10 -10 -9 0 -13 5 -10 10 3 6 8 10 10 10 2 0 7 -4 10 -10z"/>
<path d="M10611 8044 c0 -11 3 -14 6 -6 3 7 2 16 -1 19 -3 4 -6 -2 -5 -13z"/>
<path d="M6734 8031 c10 -16 42 -18 61 -5 17 13 15 14 -24 14 -23 0 -40 -4
-37 -9z"/>
<path d="M7004 7989 c7 -71 4 -74 -107 -74 -55 0 -101 -5 -105 -10 -4 -6 -18
-16 -32 -22 -20 -9 18 -12 186 -12 l211 -1 -3 38 c-2 20 -3 38 -3 39 -1 1 -13
-5 -28 -12 -27 -14 -28 -14 -36 16 -7 25 -11 29 -22 19 -12 -10 -16 -9 -21 6
-4 11 -15 27 -25 37 -18 17 -19 16 -15 -24z"/>
<path d="M7380 8020 c0 -5 7 -10 15 -10 8 0 15 5 15 10 0 6 -7 10 -15 10 -8 0
-15 -4 -15 -10z"/>
<path d="M7460 8009 c12 -9 11 -10 -7 -6 -18 4 -22 0 -25 -21 -2 -16 -13 -31
-28 -39 -16 -8 -19 -13 -9 -13 16 0 79 -28 79 -35 0 -3 -6 -2 -14 1 -8 3 -17
1 -20 -4 -3 -6 -23 -8 -44 -6 -20 3 -64 1 -97 -4 -55 -8 -48 -9 97 -16 87 -5
213 -6 280 -3 76 4 150 1 192 -6 55 -9 70 -9 74 1 2 6 22 13 45 13 36 2 33 3
-18 8 -33 4 -62 3 -63 -1 -2 -4 -8 -6 -13 -2 -15 9 0 24 23 24 12 0 19 3 15 6
-9 9 -68 -7 -61 -17 3 -5 -7 -9 -23 -9 l-27 0 22 16 c28 19 24 36 -9 41 -18 2
-20 1 -9 -6 8 -5 18 -7 22 -5 4 3 8 0 8 -6 0 -6 -10 -8 -25 -4 -18 5 -25 2
-25 -9 0 -11 -14 -16 -51 -19 -52 -3 -84 6 -74 23 4 5 -9 9 -28 9 -63 0 -97
11 -97 31 0 11 -4 19 -10 19 -5 0 -10 7 -10 15 0 10 10 15 30 15 17 0 29 -3
29 -7 -5 -30 3 -63 15 -63 8 0 12 9 11 25 -2 14 0 25 5 25 4 0 10 9 13 20 5
19 0 20 -91 20 -72 0 -93 -3 -82 -11z m60 -14 c0 -8 -2 -15 -4 -15 -2 0 -6 7
-10 15 -3 8 -1 15 4 15 6 0 10 -7 10 -15z m-13 -97 c-3 -8 -6 -5 -6 6 -1 11 2
17 5 13 3 -3 4 -12 1 -19z m126 5 c-7 -2 -21 -2 -30 0 -10 3 -4 5 12 5 17 0
24 -2 18 -5z m292 -33 c3 -5 1 -10 -4 -10 -6 0 -11 5 -11 10 0 6 2 10 4 10 3
0 8 -4 11 -10z"/>
<path d="M7787 8001 c4 -14 16 -20 49 -23 53 -4 64 -1 64 19 0 8 6 13 13 10 6
-2 11 -11 9 -18 -3 -11 -1 -11 8 -2 23 22 -1 33 -75 33 -67 0 -73 -2 -68 -19z
m98 -1 c3 -5 -3 -10 -15 -10 -12 0 -18 5 -15 10 3 6 10 10 15 10 5 0 12 -4 15
-10z"/>
<path d="M7968 8013 c7 -3 16 -2 19 1 4 3 -2 6 -13 5 -11 0 -14 -3 -6 -6z"/>
<path d="M7141 7994 c0 -11 3 -14 6 -6 3 7 2 16 -1 19 -3 4 -6 -2 -5 -13z"/>
<path d="M8740 7999 c0 -5 5 -7 10 -4 6 3 10 8 10 11 0 2 -4 4 -10 4 -5 0 -10
-5 -10 -11z"/>
<path d="M6943 7993 c9 -2 25 -2 35 0 9 3 1 5 -18 5 -19 0 -27 -2 -17 -5z"/>
<path d="M7333 7989 c-28 -10 -29 -14 -3 -16 11 -1 20 3 20 8 0 6 7 6 19 -1
15 -7 22 -7 27 2 4 7 4 10 -1 6 -4 -4 -15 -3 -24 1 -9 5 -26 5 -38 0z"/>
<path d="M9420 7993 c14 -3 29 -9 34 -14 6 -5 14 -5 21 1 6 5 33 10 60 13 28
2 7 4 -45 4 -52 0 -84 -2 -70 -4z"/>
<path d="M10595 7970 c-3 -5 1 -10 9 -10 9 0 16 5 16 10 0 6 -4 10 -9 10 -6 0
-13 -4 -16 -10z"/>
<path d="M8443 7933 c9 -2 25 -2 35 0 9 3 1 5 -18 5 -19 0 -27 -2 -17 -5z"/>
<path d="M8708 7923 c7 -3 16 -2 19 1 4 3 -2 6 -13 5 -11 0 -14 -3 -6 -6z"/>
<path d="M9469 7926 c-2 -3 -42 -7 -89 -11 -56 -4 -89 -11 -96 -21 -13 -16
-54 -19 -54 -4 0 6 5 10 12 10 6 0 8 3 5 7 -4 3 -16 -2 -28 -13 -24 -21 -129
-28 -129 -8 0 6 14 9 33 8 28 -3 27 -2 -7 7 -32 7 -42 7 -48 -5 -5 -8 -16 -12
-28 -9 -11 3 -26 1 -33 -5 -7 -6 -24 -9 -38 -6 -13 2 -17 1 -9 -2 8 -4 18 -12
22 -17 4 -7 15 -5 30 5 21 14 28 14 57 2 38 -16 131 -19 131 -4 0 14 28 12 33
-2 3 -10 8 -10 18 -2 9 7 42 8 94 4 44 -3 106 -3 138 0 l59 5 -21 24 c-12 13
-21 28 -21 33 0 8 -23 11 -31 4z m39 -53 c-10 -2 -26 -2 -35 0 -10 3 -2 5 17
5 19 0 27 -2 18 -5z"/>
<path d="M8860 7893 c0 -8 -13 -13 -32 -13 -17 0 -29 -2 -27 -4 5 -4 79 -16
129 -20 24 -2 26 -2 5 1 -32 5 -48 20 -40 40 2 7 -4 11 -16 10 -10 -1 -19 -7
-19 -14z"/>
<path d="M8371 7884 c0 -11 3 -14 6 -6 3 7 2 16 -1 19 -3 4 -6 -2 -5 -13z"/>
<path d="M8445 7893 c-39 -10 -42 -26 -3 -20 20 3 38 3 40 -1 2 -4 46 -4 98
-1 l95 5 -97 2 c-58 1 -98 6 -98 12 0 10 -3 11 -35 3z"/>
<path d="M8323 7873 c4 -6 -13 -8 -46 -5 -71 6 -57 -4 16 -12 44 -5 58 -3 55
6 -2 6 -10 14 -18 16 -7 3 -10 0 -7 -5z"/>
<path d="M9888 7873 c7 -3 16 -2 19 1 4 3 -2 6 -13 5 -11 0 -14 -3 -6 -6z"/>
<path d="M9888 7853 c12 -2 32 -2 45 0 12 2 2 4 -23 4 -25 0 -35 -2 -22 -4z"/>
<path d="M10048 7853 c6 -2 18 -2 25 0 6 3 1 5 -13 5 -14 0 -19 -2 -12 -5z"/>
<path d="M10213 7853 c15 -2 39 -2 55 0 15 2 2 4 -28 4 -30 0 -43 -2 -27 -4z"/>
<path d="M9602 7800 c-37 -23 -54 -52 -50 -87 2 -21 13 -30 56 -46 28 -11 52
-22 52 -26 0 -3 -24 -20 -53 -36 -28 -17 -52 -37 -52 -44 0 -8 -13 -23 -28
-35 -24 -18 -29 -19 -37 -6 -16 24 -11 40 10 40 11 0 20 5 20 10 0 6 -18 10
-40 10 -39 0 -45 -6 -41 -39 2 -7 -2 -10 -7 -7 -5 3 -10 -25 -11 -62 -1 -36
-9 -81 -18 -99 -14 -30 -14 -35 1 -58 19 -29 85 -49 133 -40 l33 6 0 -78 c0
-52 -3 -73 -10 -63 -7 12 -10 11 -16 -5 -10 -27 -34 -51 -34 -34 0 9 -4 8 -15
-1 -8 -7 -15 -18 -15 -24 0 -6 5 -4 10 4 5 8 10 10 10 5 0 -6 -7 -21 -16 -33
-9 -13 -13 -29 -10 -37 3 -10 -1 -15 -12 -16 -10 0 -12 -3 -4 -6 15 -6 16 -33
1 -33 -7 0 -18 8 -26 18 -7 9 -12 13 -12 7 1 -5 -3 -23 -10 -39 -22 -54 -7
-61 55 -26 31 17 58 30 59 28 2 -2 11 -37 19 -77 19 -89 22 -320 6 -379 -11
-41 -12 -42 -55 -42 -32 0 -43 -4 -39 -13 3 -8 -18 -24 -58 -43 -70 -33 -89
-54 -69 -78 17 -20 78 -21 151 -1 30 8 77 15 103 15 72 0 154 49 141 83 -3 10
-10 17 -14 17 -9 0 -4 92 8 150 l8 34 23 -64 c13 -36 45 -111 71 -167 36 -76
45 -104 36 -113 -8 -9 -6 -11 9 -8 11 2 25 -2 30 -9 6 -8 27 -16 48 -20 29 -4
42 -1 58 13 27 25 60 92 48 100 -5 3 -7 9 -4 13 5 9 -29 76 -95 189 -32 55
-40 76 -31 85 15 15 14 27 -3 21 -19 -7 -23 1 -52 103 -17 57 -26 117 -28 176
-2 70 -6 91 -19 98 -17 10 -12 39 7 39 6 0 16 -8 23 -19 10 -16 143 -61 181
-61 25 0 45 64 45 140 -1 227 -47 317 -208 408 -69 39 -70 40 -67 78 2 24 13
49 28 65 13 14 24 32 24 41 0 17 -76 88 -94 88 -6 1 -36 2 -67 4 -43 3 -64 0
-87 -14z m113 -6 c32 -13 60 -94 32 -94 -16 0 -55 -39 -41 -41 5 -1 25 -2 44
-3 28 -1 36 -5 38 -23 4 -24 -29 -63 -53 -63 -32 0 -62 46 -80 123 -15 62 -16
79 -5 91 13 17 37 20 65 10z m-55 -194 c0 -5 -6 -10 -14 -10 -8 0 -23 -3 -33
-6 -16 -5 -16 -4 1 10 22 18 46 21 46 6z m85 -68 c33 4 45 2 45 -8 0 -37 -90
-46 -114 -12 -24 34 -21 56 4 33 15 -13 30 -16 65 -13z m-82 -21 c10 -16 36
-40 60 -53 29 -16 43 -31 45 -48 2 -20 1 -22 -8 -10 -9 11 -13 12 -17 2 -2 -6
-9 -9 -15 -6 -12 8 -4 -25 19 -76 9 -19 17 -48 19 -65 2 -30 1 -30 -40 -27
-39 4 -40 3 -21 -13 17 -14 17 -16 3 -11 -11 3 -18 0 -18 -7 0 -8 -4 -7 -11 3
-8 11 -9 7 -3 -15 4 -16 8 -55 10 -85 2 -54 3 -55 36 -61 31 -5 29 -6 -21 -13
-48 -7 -53 -10 -38 -21 16 -11 15 -13 -10 -18 -16 -3 -30 -4 -32 -2 -2 2 -5
104 -6 227 -2 123 -6 247 -10 276 -7 50 -7 52 17 52 16 0 29 -10 41 -29z
m-183 -11 c8 -15 6 -37 -10 -90 -30 -102 -45 -102 -36 0 6 71 17 110 32 110 2
0 8 -9 14 -20z m94 -21 c9 -46 7 -104 -4 -133 -8 -22 -16 -26 -51 -26 -29 0
-40 4 -37 13 3 6 15 44 28 82 33 101 52 121 64 64z m339 -2 c52 -48 107 -233
76 -253 -8 -4 -8 -9 0 -17 20 -20 11 -32 -27 -33 -20 -1 -27 1 -14 3 12 2 22
9 22 14 0 6 -8 8 -17 5 -10 -3 -31 -2 -48 3 l-30 9 38 1 c59 1 34 21 -27 21
-31 0 -58 5 -64 13 -13 16 -31 124 -27 165 4 42 33 88 47 74 6 -6 17 -8 24 -5
8 3 14 -1 14 -8 0 -7 3 -9 7 -6 3 4 -2 16 -12 27 -30 33 1 23 38 -13z m-108
-317 c3 -5 1 -10 -4 -10 -6 0 -11 5 -11 10 0 6 2 10 4 10 3 0 8 -4 11 -10z
m-234 -83 c-10 -9 -11 -8 -5 6 3 10 9 15 12 12 3 -3 0 -11 -7 -18z m-24 -697
c21 -11 49 -20 63 -21 24 -1 24 -1 -5 -10 -22 -6 -34 -4 -49 9 -18 16 -19 16
-13 -1 6 -16 0 -18 -76 -15 -66 2 -82 6 -85 19 -2 12 8 20 35 27 59 16 90 14
130 -8z m135 -2 c-7 -7 -12 -8 -12 -2 0 14 12 26 19 19 2 -3 -1 -11 -7 -17z
m334 -40 c8 -25 -28 -61 -55 -56 -29 6 -25 45 6 62 37 20 40 20 49 -6z"/>
<path d="M9660 7230 c0 -5 5 -10 10 -10 6 0 10 5 10 10 0 6 -4 10 -10 10 -5 0
-10 -4 -10 -10z"/>
<path d="M1805 7606 c-37 -23 -137 -133 -178 -196 -41 -64 -38 -215 6 -312 25
-54 25 -61 12 -161 -7 -53 -9 -57 -24 -43 -9 8 -29 20 -45 26 l-29 11 23 24
c20 21 21 27 10 59 -17 54 -61 80 -143 84 -60 4 -75 1 -132 -27 -36 -18 -78
-48 -94 -68 -43 -52 -89 -143 -97 -190 -16 -101 42 -265 106 -298 16 -8 57
-18 90 -22 68 -7 73 -16 40 -71 -17 -27 -20 -50 -20 -142 l0 -109 -52 -16
c-28 -8 -59 -15 -69 -15 -9 0 -22 -7 -29 -15 -7 -8 -23 -15 -35 -15 -12 0 -42
-7 -65 -15 -23 -8 -51 -15 -61 -15 -11 0 -39 -13 -64 -28 l-45 -28 34 -33 c19
-19 36 -46 38 -60 4 -34 74 -70 151 -78 50 -5 61 -2 128 35 132 71 174 74 256
15 33 -24 110 -31 182 -17 l31 6 -38 28 c-53 38 -97 97 -133 176 -47 104 -48
148 -5 281 24 74 43 116 56 123 10 5 41 10 67 10 l49 0 23 -72 c37 -115 58
-151 86 -146 19 4 27 -3 46 -36 36 -65 172 -196 203 -196 18 0 26 5 26 17 0
16 -126 143 -143 143 -9 0 -41 70 -51 113 l-7 29 23 -24 c13 -13 31 -24 41
-25 9 0 21 -1 25 -2 5 0 14 -17 22 -36 8 -19 18 -35 22 -35 9 0 24 58 19 75
-1 6 13 -8 33 -30 19 -22 38 -56 41 -75 10 -52 14 -62 24 -56 5 4 12 19 16 36
l6 29 64 -6 c68 -6 96 4 94 36 0 10 -2 11 -6 4 -8 -20 -63 -15 -119 11 -75 35
-76 46 -7 48 39 1 47 3 24 5 -35 5 -96 42 -70 44 8 0 3 5 -10 10 -82 33 -91
41 -129 118 -33 67 -37 85 -37 152 0 68 3 80 32 125 18 27 49 77 69 111 36 59
54 73 100 73 12 0 28 7 35 16 21 26 -15 46 -66 38 -65 -9 -115 10 -182 70 -57
52 -61 59 -83 140 -13 49 -19 93 -15 103 4 10 11 54 15 99 8 82 29 141 55 150
7 3 34 -11 60 -31 26 -20 50 -33 53 -30 3 3 -14 26 -39 51 -75 77 -143 93
-214 50z m-42 -282 c10 -122 54 -226 87 -203 11 8 12 12 3 16 -7 2 -13 19 -13
36 0 29 3 27 29 -29 34 -72 83 -116 154 -138 77 -24 86 -31 65 -52 -13 -14
-36 -18 -106 -18 -80 -1 -92 1 -130 27 -87 57 -108 118 -118 342 -5 125 -4
137 9 114 8 -14 17 -57 20 -95z m-49 -125 c9 -13 16 -42 16 -64 -1 -38 -1 -39
-16 -20 -19 25 -54 139 -54 174 1 21 4 18 19 -20 10 -26 26 -57 35 -70z m-206
-155 c27 -18 47 -57 39 -77 -3 -8 -25 -17 -50 -20 -64 -9 -93 -25 -123 -68
-42 -61 -53 -106 -53 -219 -1 -120 5 -136 44 -126 17 4 24 3 20 -4 -3 -5 -32
-10 -64 -10 -44 0 -65 5 -85 21 -93 73 -95 283 -5 416 65 94 201 137 277 87z
m169 -36 c-3 -8 -6 -5 -6 6 -1 11 2 17 5 13 3 -3 4 -12 1 -19z m-177 -122 c0
-3 -4 -8 -10 -11 -5 -3 -10 -1 -10 4 0 6 5 11 10 11 6 0 10 -2 10 -4z m370 -6
c0 -14 -51 -62 -58 -55 -3 3 4 14 16 25 12 12 22 25 22 30 0 6 5 10 10 10 6 0
10 -5 10 -10z m-271 -54 c14 -14 23 -27 20 -29 -22 -17 -68 -47 -73 -47 -10 0
2 50 14 66 9 10 8 17 -4 29 -9 9 -16 19 -16 21 0 9 36 -15 59 -40z m410 2 c-7
-13 -20 -34 -30 -47 -11 -13 -19 -32 -19 -43 0 -11 -3 -17 -7 -15 -5 3 -6 -19
-5 -48 3 -40 -2 -63 -21 -101 -14 -27 -31 -69 -38 -93 -17 -58 -27 -33 -28 69
-1 85 6 123 22 113 6 -4 8 0 4 11 -4 9 -3 15 2 11 11 -6 41 22 41 38 0 7 -4 6
-10 -3 -13 -19 -13 -8 0 24 5 14 6 26 2 26 -4 0 -8 9 -8 20 0 11 1 20 2 20 16
0 32 -15 27 -26 -3 -8 0 -14 6 -14 6 0 11 7 11 15 0 12 47 65 58 65 1 0 -3
-10 -9 -22z m-494 -69 c13 -20 9 -79 -6 -93 -21 -21 -82 5 -72 31 20 55 62 89
78 62z m234 -34 c-26 -36 -35 -43 -46 -33 -13 10 -12 13 4 19 11 4 27 19 36
33 10 14 22 26 28 26 6 0 -4 -20 -22 -45z m-127 -85 c-2 -16 -7 -30 -11 -31
-3 0 -14 -2 -23 -4 -23 -4 -23 1 3 36 26 37 37 37 31 -1z m-102 -45 c-17 -20
-69 -51 -100 -59 -16 -4 -10 2 15 15 22 12 51 30 64 40 29 23 38 24 21 4z
m-143 -267 c-2 -13 -4 -3 -4 22 0 25 2 35 4 23 2 -13 2 -33 0 -45z m-19 -232
c6 -25 25 -60 42 -79 33 -39 36 -44 18 -44 -7 0 -29 -3 -48 -6 l-35 -6 -37 79
-37 80 32 9 c50 14 52 14 65 -33z m-98 -28 c7 -28 21 -66 32 -83 l18 -32 -56
-22 c-31 -11 -60 -21 -65 -21 -5 0 -49 23 -99 50 -50 28 -98 50 -107 50 -32 0
2 20 72 44 73 25 114 24 94 0 -13 -16 5 -26 48 -29 14 0 34 -12 44 -25 11 -14
4 5 -16 42 -36 67 -36 75 7 77 11 1 20 -14 28 -51z"/>
<path d="M1330 6935 c-7 -9 -10 -18 -7 -22 8 -7 37 15 37 28 0 14 -16 11 -30
-6z"/>
<path d="M8934 7464 c-30 -7 -82 -58 -90 -88 -9 -38 3 -73 32 -93 19 -12 30
-14 43 -6 26 17 25 40 -3 47 -22 5 -26 12 -26 40 0 44 21 60 78 60 57 0 108
-24 156 -70 61 -59 69 -84 76 -243 8 -169 1 -258 -24 -296 -16 -25 -22 -27
-62 -22 -36 4 -46 1 -54 -14 -13 -24 14 -39 67 -39 46 0 88 36 103 90 11 40
15 340 4 396 -27 148 -175 265 -300 238z"/>
<path d="M5455 7423 c-4 -16 -10 -36 -16 -45 -11 -21 4 -24 20 -5 16 21 26 77
12 77 -6 0 -13 -12 -16 -27z"/>
<path d="M8095 7257 c-25 -21 -26 -24 -15 -69 9 -33 24 -58 52 -84 l40 -37 -4
-66 c-3 -56 -10 -77 -47 -139 -24 -40 -49 -89 -57 -110 -16 -46 -18 -173 -3
-242 10 -45 16 -54 44 -66 19 -7 89 -18 157 -23 68 -6 156 -19 196 -31 137
-39 228 -27 253 32 9 22 11 112 6 376 -3 191 -8 354 -12 364 -5 12 -25 18 -78
23 -40 4 -149 27 -243 51 -196 51 -250 55 -289 21z m254 -52 c64 -19 145 -38
180 -44 36 -6 69 -15 74 -20 13 -13 -83 -24 -135 -16 -80 13 -296 80 -328 103
-2 2 2 7 10 13 19 12 56 5 199 -36z m-15 -87 c109 -30 235 -41 284 -24 l22 7
0 -173 c0 -225 1 -222 -110 -226 -47 -2 -126 2 -177 8 -52 7 -97 9 -105 4 -14
-10 43 -17 235 -30 108 -7 135 -18 74 -29 -31 -6 -279 9 -361 21 l-38 6 5 47
c42 332 43 391 12 391 -8 0 -15 9 -15 20 0 24 16 22 174 -22z m333 -276 c-1
-53 -3 -7 -3 103 0 110 2 154 3 97 2 -57 2 -147 0 -200z m-13 -159 c-30 -22
-36 -14 -12 18 19 25 24 28 27 13 2 -10 -5 -24 -15 -31z"/>
<path d="M4602 7149 c6 -17 79 -40 107 -34 21 5 51 27 51 38 0 2 -21 -3 -46
-11 -30 -10 -48 -11 -52 -5 -10 15 -65 26 -60 12z"/>
<path d="M4568 7051 c-5 -18 -8 -43 -8 -55 1 -19 2 -19 11 -3 6 9 9 34 7 55
l-3 37 -7 -34z"/>
<path d="M2185 7040 c-3 -5 -2 -10 4 -10 5 0 13 5 16 10 3 6 2 10 -4 10 -5 0
-13 -4 -16 -10z"/>
<path d="M7831 6764 c0 -11 3 -14 6 -6 3 7 2 16 -1 19 -3 4 -6 -2 -5 -13z"/>
<path d="M998 6404 c-11 -23 -10 -29 11 -45 32 -26 39 -24 49 12 l8 31 52 -44
52 -45 50 16 c51 16 68 41 28 41 -13 0 -36 -7 -52 -15 -34 -18 -41 -15 -66 36
-20 38 -22 39 -70 39 -45 0 -52 -3 -62 -26z"/>
<path d="M8336 6329 c-49 -12 -100 -42 -124 -76 l-18 -25 -38 25 c-59 41 -129
60 -201 55 -73 -4 -105 -25 -105 -68 0 -33 48 -74 121 -101 72 -28 120 -25
161 9 18 15 35 30 36 35 6 13 33 7 67 -16 36 -24 35 -40 -4 -52 -14 -4 -21 -3
-18 2 4 6 -5 15 -19 22 -15 6 -23 7 -19 1 3 -5 1 -10 -4 -10 -21 0 -10 -19 22
-38 40 -24 88 -34 107 -21 8 5 11 9 5 9 -5 0 -3 6 7 13 12 10 34 11 90 4 135
-16 206 34 111 78 -48 22 -55 34 -20 36 16 1 18 2 5 6 -21 5 -25 52 -6 71 9 9
9 12 1 12 -7 0 -15 9 -18 20 -5 16 -15 20 -53 19 -26 -1 -65 -5 -86 -10z m102
-54 c-3 -13 -1 -26 5 -28 32 -10 -34 -77 -78 -77 -22 0 -19 10 13 43 23 25 24
28 5 18 -11 -6 -30 -23 -41 -38 l-20 -28 -36 18 c-20 9 -39 24 -43 33 -16 42
55 84 141 84 57 0 58 -1 54 -25z m-348 -27 c22 -13 40 -29 40 -35 0 -32 -116
-29 -193 5 -49 22 -55 42 -12 42 13 0 27 5 31 11 10 17 88 3 134 -23z"/>
<path d="M9300 6321 c0 -6 4 -13 10 -16 6 -3 7 1 4 9 -7 18 -14 21 -14 7z"/>
<path d="M892 6123 c2 -13 14 -19 46 -21 38 -3 43 -1 40 15 -2 13 -14 19 -46
21 -38 3 -43 1 -40 -15z"/>
<path d="M10541 5879 c-24 -4 -50 -14 -58 -21 -21 -17 -971 -30 -1538 -21
-485 9 -563 9 -785 0 -80 -3 -204 -6 -276 -6 l-131 -1 8 -45 c5 -25 9 -105 10
-179 l2 -134 46 -6 c203 -25 1536 -31 2337 -10 l252 7 8 -99 c5 -54 8 -603 8
-1219 l-1 -1120 -1574 -1 c-1476 -1 -1849 -6 -1849 -23 0 -8 -49 -10 -359 -10
-155 0 -207 -4 -213 -13 -6 -10 -10 -10 -16 0 -6 9 -36 11 -113 7 -57 -2 -169
-7 -249 -10 -80 -3 -228 -13 -330 -21 -102 -9 -283 -16 -403 -15 -124 0 -215
-3 -212 -9 5 -8 -46 -15 -185 -24 -197 -14 -299 -18 -648 -25 -271 -6 -387
-12 -397 -21 -8 -6 -19 -8 -26 -4 -6 4 -33 8 -60 10 l-47 2 6 -36 c15 -80 3
-408 -28 -807 -18 -226 -39 -2010 -24 -2025 3 -2 9 2 14 10 7 10 10 11 10 3 0
-19 500 -19 518 -1 10 10 14 10 21 0 6 -10 13 -11 34 -1 15 7 27 16 27 21 0 5
5 6 10 3 16 -10 12 -25 -7 -26 -10 0 -13 -3 -6 -5 7 -3 21 0 32 5 13 7 22 8
26 1 3 -5 11 -10 16 -10 6 0 8 4 5 9 -3 5 1 12 10 15 22 9 24 8 18 -9 -4 -8
-1 -15 5 -15 6 0 11 5 11 10 0 6 7 10 15 10 8 0 15 -4 15 -8 0 -12 82 -12 97
0 9 7 13 7 13 -1 0 -8 77 -11 270 -11 203 0 270 3 270 12 0 9 3 9 12 0 17 -17
368 -17 368 1 0 7 3 8 8 2 8 -12 201 -14 220 -2 7 5 12 4 12 -2 0 -6 9 -11 21
-11 11 0 17 5 14 10 -7 12 8 14 19 3 4 -5 27 -8 51 -9 35 0 42 3 37 15 -4 13
-2 14 9 4 17 -17 32 -16 26 0 -3 8 -2 19 3 26 5 9 9 5 14 -13 3 -14 11 -26 17
-26 6 0 8 8 4 19 -8 26 18 34 33 10 9 -15 8 -20 -6 -28 -13 -8 -5 -10 34 -11
34 0 56 5 64 15 7 8 16 15 21 15 5 0 9 -7 9 -15 0 -8 7 -15 15 -15 8 0 15 7
15 15 0 8 -4 15 -10 15 -5 0 -10 5 -10 11 0 6 7 8 16 5 9 -4 23 -1 30 5 11 9
11 5 4 -20 -7 -24 -6 -31 6 -31 8 0 14 5 14 10 0 6 5 10 11 10 5 0 7 -5 4 -10
-4 -6 16 -10 53 -9 52 1 59 4 55 20 -3 10 1 24 8 32 19 18 49 29 49 17 0 -6
-4 -10 -10 -10 -5 0 -10 -7 -10 -15 0 -8 -4 -15 -10 -15 -5 0 -10 -6 -10 -13
0 -19 68 -16 80 3 8 13 10 12 10 -2 0 -11 8 -18 20 -18 22 0 27 15 8 23 -8 4
-9 6 -2 6 6 1 17 -6 24 -14 10 -12 39 -15 139 -15 69 0 143 3 163 6 33 6 38
10 36 33 -2 57 3 79 20 85 9 3 23 9 31 12 9 4 11 2 7 -5 -4 -6 -3 -11 3 -11 5
0 14 12 19 28 10 26 11 27 17 5 6 -18 13 -22 32 -18 23 4 25 2 21 -29 -3 -30
-2 -32 14 -22 10 6 18 19 18 29 0 11 5 15 11 11 6 -3 8 -15 6 -26 -6 -21 11
-68 24 -68 4 0 9 7 13 15 3 8 12 12 20 9 9 -3 23 1 31 10 23 22 65 21 65 -1 0
-10 5 -25 11 -33 8 -11 9 -4 6 28 -4 31 -1 45 9 49 8 3 12 14 10 26 -3 12 -5
30 -5 40 -1 9 -8 17 -16 17 -8 0 -15 5 -15 11 0 6 7 8 16 5 8 -3 13 -2 9 3 -3
5 -1 11 5 13 6 2 7 14 1 35 -11 37 -5 113 10 128 7 7 9 2 6 -15 -2 -14 0 -41
4 -60 12 -63 14 1269 3 2040 -6 372 -5 427 9 438 8 7 51 14 98 16 46 2 89 5
94 6 6 1 21 1 35 0 17 -2 10 -5 -20 -10 -25 -4 83 -8 240 -10 157 -1 344 -4
415 -5 100 -1 119 0 80 7 -27 5 -70 6 -93 3 -24 -3 -99 0 -165 7 -121 11 -247
11 -361 1 -41 -3 -56 -2 -52 6 4 6 2 11 -4 11 -6 0 -8 5 -4 12 5 7 2 9 -7 6
-8 -3 -22 -9 -31 -13 -11 -4 -18 -3 -18 4 0 6 7 11 16 11 8 0 22 7 30 15 14
13 9 15 -45 15 -34 0 -61 4 -61 10 0 6 -8 10 -17 9 -12 0 -13 -2 -5 -6 10 -4
10 -8 1 -19 -15 -19 -30 -18 -23 1 8 20 -25 20 -54 -1 -20 -14 -22 -14 -22 3
0 10 -8 30 -17 43 -14 21 -15 23 -1 12 13 -10 163 -13 719 -14 923 -3 1159 -6
1159 -18 0 -6 -17 -10 -37 -11 -31 0 -34 -2 -18 -9 11 -5 14 -9 7 -9 -9 -1
-10 -6 -3 -20 8 -14 7 -22 -4 -31 -8 -7 -15 -15 -15 -19 0 -5 200 -5 1195 -1
59 0 95 4 86 9 -8 5 3 9 33 9 25 1 48 -3 51 -8 4 -6 25 -9 48 -9 l42 2 -35 6
c-31 6 -33 8 -12 14 65 20 65 20 59 -2 -4 -16 -1 -21 14 -21 17 0 18 13 2 42
-8 16 -2 1255 7 1321 26 188 56 491 66 670 4 59 10 107 13 107 9 0 7 197 -2
206 -12 12 -8 52 7 57 20 8 26 43 11 64 -12 16 -12 14 -8 -11 4 -20 2 -27 -6
-22 -14 9 -15 56 -1 56 6 0 10 7 10 16 0 13 3 14 13 5 8 -6 17 -8 20 -4 16 16
-25 102 -49 103 -6 0 -14 26 -18 58 -3 31 -12 81 -18 111 -11 52 -11 55 10 69
13 8 39 30 60 49 20 19 56 43 79 54 42 19 73 25 59 12 -8 -8 -13 -10 -43 -12
-12 -1 -14 -4 -6 -12 7 -7 24 -8 42 -4 30 6 31 8 31 66 l0 59 -90 0 c-79 0
-91 2 -102 20 -7 11 -15 20 -18 19 -3 -1 -25 -5 -49 -10z m-1311 -234 c569 -2
1036 -4 1038 -5 1 0 2 -7 2 -15 0 -21 31 -34 70 -29 23 3 42 -1 55 -11 11 -9
15 -14 9 -11 -7 3 -14 -3 -17 -13 -4 -15 -15 -18 -76 -18 -42 -1 -77 -6 -86
-13 -12 -10 -164 -13 -698 -13 -375 0 -781 3 -902 6 -121 4 -341 9 -490 13
-148 3 -278 7 -287 10 -10 3 -18 13 -18 23 0 10 -10 25 -22 34 l-23 15 20 20
c19 19 30 20 205 16 102 -2 651 -6 1220 -9z m1222 -60 c3 -14 1 -28 -3 -31 -5
-3 -9 9 -9 25 0 38 6 40 12 6z m-3358 -2616 c-8 -13 -40 -11 -52 4 -9 10 -4
12 23 9 19 -2 32 -8 29 -13z m-717 -5 c10 -10 25 -13 40 -9 16 4 35 0 49 -10
14 -9 28 -14 32 -11 4 2 25 0 47 -4 24 -5 -75 -8 -242 -8 -156 -1 -285 3 -288
8 -3 4 31 6 75 3 46 -4 80 -2 78 3 -2 5 2 9 7 9 6 0 9 -3 8 -7 -5 -14 11 -8
37 12 14 11 32 19 40 19 10 0 8 -3 -5 -9 -15 -6 -7 -9 30 -9 36 -1 46 -4 35
-11 -12 -8 -9 -10 12 -10 15 0 30 4 33 10 4 6 -1 7 -11 3 -12 -5 -15 -3 -9 6
4 8 2 17 -6 22 -11 7 -10 9 4 9 10 0 26 -7 34 -16z m760 10 c-3 -3 -12 -4 -19
-1 -8 3 -5 6 6 6 11 1 17 -2 13 -5z m-167 -15 c0 -7 -9 -9 -21 -6 -18 5 -21 2
-17 -23 4 -27 2 -29 -27 -28 -18 1 -36 -1 -41 -4 -5 -3 -20 -1 -34 4 -22 8
-23 11 -9 21 8 7 18 20 22 30 5 14 18 17 67 17 37 0 60 -4 60 -11z m-1080 -29
c-20 -13 -33 -13 -25 0 3 6 14 10 23 10 15 0 15 -2 2 -10z m85 -1 c4 -5 -8 -9
-25 -9 -17 0 -29 4 -26 8 7 11 45 12 51 1z m1072 -3 c4 -3 -13 -6 -36 -6 -23
0 -40 4 -37 8 5 9 64 7 73 -2z m-1894 -3 c-7 -2 -19 -2 -25 0 -7 3 -2 5 12 5
14 0 19 -2 13 -5z m84 1 c-3 -3 -12 -4 -19 -1 -8 3 -5 6 6 6 11 1 17 -2 13 -5z
m1416 -1 c-13 -2 -33 -2 -45 0 -13 2 -3 4 22 4 25 0 35 -2 23 -4z m90 0 c-13
-2 -33 -2 -45 0 -13 2 -3 4 22 4 25 0 35 -2 23 -4z m350 -20 c-7 -2 -19 -2
-25 0 -7 3 -2 5 12 5 14 0 19 -2 13 -5z m52 -3 c8 -13 -5 -13 -25 0 -13 8 -13
10 2 10 9 0 20 -4 23 -10z m2101 -10 c8 0 14 -5 14 -11 0 -7 -11 -9 -29 -6
-45 9 -86 -6 -85 -31 1 -12 -4 -22 -10 -22 -7 0 -11 15 -11 33 0 30 2 32 31
29 18 -2 35 1 39 8 4 6 14 9 22 6 8 -3 21 -6 29 -6z m67 -7 c-7 -2 -19 -2 -25
0 -7 3 -2 5 12 5 14 0 19 -2 13 -5z m115 0 c-16 -2 -40 -2 -55 0 -16 2 -3 4
27 4 30 0 43 -2 28 -4z m75 0 c-7 -2 -21 -2 -30 0 -10 3 -4 5 12 5 17 0 24 -2
18 -5z m597 -3 c-59 -3 -89 -8 -78 -13 9 -5 18 -17 21 -28 4 -15 0 -19 -19
-19 -13 0 -24 -4 -24 -9 0 -4 -25 -9 -55 -9 -55 0 -73 11 -35 21 12 3 21 14
21 29 2 23 2 23 6 1 4 -23 23 -33 23 -13 0 6 9 10 20 10 11 0 20 7 20 15 0 11
-18 15 -77 18 -43 1 1 3 97 3 133 0 152 -1 80 -6z m-3207 -21 c49 -13 118 -84
155 -159 l27 -55 0 -1042 c-1 -907 1 -1041 13 -1030 12 10 14 8 8 -9 -3 -12
-2 -33 3 -48 8 -19 7 -26 -2 -26 -6 0 -4 -5 6 -11 9 -5 17 -15 17 -20 0 -6 -4
-7 -10 -4 -5 3 -10 0 -10 -8 0 -10 -18 -20 -49 -28 -45 -11 -54 -19 -60 -54
-1 -3 -9 -14 -18 -24 -33 -36 -41 -48 -46 -67 -3 -12 -5 -6 -6 14 -1 38 -4 39
-32 11 -22 -22 -18 -59 7 -59 8 0 14 -7 14 -15 0 -8 5 -15 10 -15 6 0 10 -5
10 -11 0 -6 -8 -8 -17 -5 -23 7 -45 -7 -41 -25 2 -8 -3 -13 -11 -11 -7 1 -19
-3 -27 -9 -11 -9 -14 -8 -14 5 0 10 5 14 11 10 9 -5 10 1 5 20 -4 15 -2 26 4
26 5 0 9 25 7 60 -1 33 -6 60 -10 60 -5 0 -1 7 7 16 12 12 13 20 6 35 -10 18
-14 15 -60 -30 -30 -30 -65 -54 -88 -60 -25 -7 -456 -11 -1301 -11 l-1265 0
-43 21 c-51 25 -77 59 -68 88 3 11 2 37 -4 58 -5 21 -12 80 -15 132 -3 51 -7
95 -9 98 -2 2 -16 -1 -31 -7 -15 -5 -40 -8 -56 -5 -30 5 -42 -12 -70 -97 -12
-40 -37 -67 -28 -30 4 15 2 19 -9 15 -12 -5 -14 0 -9 23 25 123 27 249 21
1094 -4 487 -11 917 -16 955 -5 39 -12 92 -16 119 -7 57 12 58 23 1 5 -30 9
-33 24 -25 30 16 46 12 60 -15 14 -27 26 -24 41 9 9 21 10 21 5 -1 -2 -13 0
-23 4 -23 5 0 10 21 12 48 l3 47 1416 -2 1416 -2 -8 42 c-4 23 -8 46 -9 51 0
9 60 2 123 -15z m399 -12 c-7 -8 -9 -17 -5 -21 4 -4 0 -4 -9 -1 -15 6 -15 8 0
24 19 20 31 18 14 -2z m1986 -8 c2 -11 -7 -18 -28 -22 -39 -8 -90 2 -90 18 0
20 11 24 64 22 38 -1 52 -6 54 -18z m1222 12 c0 -18 -18 -21 -30 -6 -10 13 -9
15 9 15 11 0 21 -4 21 -9z m-340 -21 c0 -12 -24 -12 -60 0 -21 7 -19 8 18 9
23 1 42 -3 42 -9z m-6300 -20 c0 -5 -4 -10 -9 -10 -6 0 -13 5 -16 10 -3 6 1
10 9 10 9 0 16 -4 16 -10z m6193 -7 c-7 -2 -21 -2 -30 0 -10 3 -4 5 12 5 17 0
24 -2 18 -5z m-3109 -2563 c-10 -4 -21 -6 -24 -3 -8 7 24 22 34 16 5 -4 1 -10
-10 -13z m212 4 c-3 -9 -6 -22 -6 -30 0 -8 -7 -14 -15 -14 -18 0 -19 14 -5 41
13 23 35 26 26 3z m-54 -76 c-8 -8 -9 -4 -5 13 4 13 8 18 11 10 2 -7 -1 -18
-6 -23z m-1942 18 c0 -3 -4 -8 -10 -11 -5 -3 -10 -1 -10 4 0 6 5 11 10 11 6 0
10 -2 10 -4z m1800 -16 c0 -5 -10 -10 -22 -10 -19 0 -20 2 -8 10 19 13 30 13
30 0z m-980 -40 c0 -5 -5 -10 -11 -10 -5 0 -7 5 -4 10 3 6 8 10 11 10 2 0 4
-4 4 -10z m1064 -51 c-3 -5 -10 -7 -15 -3 -5 3 -7 10 -3 15 3 5 10 7 15 3 5
-3 7 -10 3 -15z m-1129 1 c3 -5 1 -10 -4 -10 -6 0 -11 5 -11 10 0 6 2 10 4 10
3 0 8 -4 11 -10z m45 0 c0 -5 -2 -10 -4 -10 -3 0 -8 5 -11 10 -3 6 -1 10 4 10
6 0 11 -4 11 -10z m43 -2 c4 -10 8 -9 16 2 9 13 11 12 11 -3 0 -13 -6 -17 -22
-15 -21 3 -39 28 -20 28 6 0 13 -6 15 -12z m66 -25 c1 5 6 5 12 2 6 -5 4 -12
-8 -21 -22 -16 -43 -18 -43 -3 0 6 7 9 15 5 12 -4 14 0 10 22 -4 22 -4 24 4 7
5 -11 10 -16 10 -12z m323 -15 c-7 -7 -12 -8 -12 -2 0 14 12 26 19 19 2 -3 -1
-11 -7 -17z m-1985 6 c-3 -3 -12 -4 -19 -1 -8 3 -5 6 6 6 11 1 17 -2 13 -5z
m1883 -4 c0 -5 -2 -10 -4 -10 -3 0 -8 5 -11 10 -3 6 -1 10 4 10 6 0 11 -4 11
-10z m-1740 -9 c0 -12 -20 -25 -27 -18 -7 7 6 27 18 27 5 0 9 -4 9 -9z"/>
<path d="M6425 2940 c-19 -8 -19 -9 3 -9 12 -1 22 4 22 9 0 6 -1 10 -2 9 -2 0
-12 -4 -23 -9z"/>
<path d="M6313 2653 c9 -2 23 -2 30 0 6 3 -1 5 -18 5 -16 0 -22 -2 -12 -5z"/>
<path d="M6585 2650 c3 -5 10 -10 16 -10 5 0 9 5 9 10 0 6 -7 10 -16 10 -8 0
-12 -4 -9 -10z"/>
<path d="M6630 2651 c0 -5 9 -7 20 -4 11 3 20 7 20 9 0 2 -9 4 -20 4 -11 0
-20 -4 -20 -9z"/>
<path d="M4050 2548 c0 -123 8 -127 11 -5 2 48 6 82 10 75 7 -10 11 -10 21 0
6 6 8 12 3 12 -6 0 -3 5 5 10 11 7 7 10 -17 10 l-33 0 0 -102z"/>
<path d="M4463 2643 c31 -2 83 -2 115 0 31 2 5 3 -58 3 -63 0 -89 -1 -57 -3z"/>
<path d="M5508 2643 c6 -2 18 -2 25 0 6 3 1 5 -13 5 -14 0 -19 -2 -12 -5z"/>
<path d="M5608 2643 c12 -2 30 -2 40 0 9 3 -1 5 -23 4 -22 0 -30 -2 -17 -4z"/>
<path d="M5763 2643 c9 -2 25 -2 35 0 9 3 1 5 -18 5 -19 0 -27 -2 -17 -5z"/>
<path d="M5837 2628 c15 -17 53 -21 53 -5 0 5 14 7 30 5 17 -3 30 -1 30 3 0 4
10 10 23 12 12 3 -17 4 -65 3 -80 -1 -85 -2 -71 -18z"/>
<path d="M6008 2643 c6 -2 18 -2 25 0 6 3 1 5 -13 5 -14 0 -19 -2 -12 -5z"/>
<path d="M6078 2643 c12 -2 32 -2 45 0 12 2 2 4 -23 4 -25 0 -35 -2 -22 -4z"/>
<path d="M5360 2630 c20 -13 33 -13 25 0 -3 6 -14 10 -23 10 -15 0 -15 -2 -2
-10z"/>
<path d="M5248 2623 c7 -3 16 -2 19 1 4 3 -2 6 -13 5 -11 0 -14 -3 -6 -6z"/>
<path d="M5300 2620 c0 -5 7 -7 15 -4 8 4 15 8 15 10 0 2 -7 4 -15 4 -8 0 -15
-4 -15 -10z"/>
<path d="M5104 2549 c-125 -36 -51 -182 140 -276 31 -15 56 -33 56 -39 0 -15
-48 -54 -66 -54 -8 0 -16 -11 -20 -25 -3 -14 -10 -22 -16 -19 -5 3 -8 -2 -6
-12 7 -39 -123 -43 -269 -8 -68 17 -72 17 -98 0 l-27 -18 7 -99 c7 -100 0
-282 -35 -904 -29 -522 -30 -503 3 -536 27 -27 117 -55 148 -45 8 2 26 7 41
10 38 8 51 55 43 154 -11 124 19 332 48 332 27 0 650 -67 797 -85 195 -25 271
-28 365 -16 49 7 91 13 92 15 2 1 5 101 8 222 3 120 9 289 13 374 8 175 -5
299 -39 365 -33 63 -78 114 -118 134 -48 25 -302 86 -422 102 -90 11 -96 14
-91 33 3 12 9 26 13 32 5 6 7 13 4 16 -9 8 64 68 229 188 37 27 66 68 66 93 0
9 -10 27 -22 42 l-23 25 -395 4 c-217 2 -409 0 -426 -5z m450 -89 c126 -5 230
-11 232 -13 3 -2 -22 -24 -53 -48 l-58 -44 -165 0 -165 0 -56 36 c-30 20 -65
40 -77 43 -24 8 -29 31 -9 40 6 3 37 3 67 0 30 -2 158 -9 284 -14z m134 -149
c15 -9 6 -19 -46 -45 -45 -23 -51 -13 -14 24 32 32 39 34 60 21z m-188 -231
c-8 -5 -24 -9 -35 -9 -16 1 -16 2 5 9 35 11 48 11 30 0z m-520 -30 c41 -7 81
-17 87 -23 20 -14 5 -27 -20 -17 -40 15 -159 40 -168 34 -5 -3 -9 4 -9 16 0
17 3 19 18 12 9 -5 51 -15 92 -22z m644 21 c3 -4 -4 -7 -14 -8 -11 -1 -22 2
-24 6 -3 4 4 7 14 8 11 1 22 -2 24 -6z m-331 -26 c54 -8 105 -19 114 -24 14
-7 13 -10 -5 -20 -12 -7 -22 -16 -22 -22 0 -6 5 -7 10 -4 6 3 10 1 10 -4 0 -6
-9 -11 -21 -11 -11 0 -17 5 -14 10 4 6 -8 10 -29 10 -20 0 -36 -3 -36 -6 0 -4
13 -28 29 -54 39 -63 67 -144 95 -275 45 -206 77 -330 106 -403 19 -50 24 -72
15 -68 -40 15 -180 36 -340 50 -99 9 -203 19 -231 22 l-51 5 5 52 c9 97 146
632 182 715 22 50 28 50 183 27z m731 -106 c22 -6 47 -13 53 -15 10 -3 9 -12
-4 -39 -19 -40 -22 -41 -66 -19 -38 20 -47 31 -47 62 0 25 7 26 64 11z m-984
-59 c0 -5 -2 -10 -4 -10 -3 0 -8 5 -11 10 -3 6 -1 10 4 10 6 0 11 -4 11 -10z"/>
<path d="M5970 2446 c0 -2 7 -7 16 -10 8 -3 12 -2 9 4 -6 10 -25 14 -25 6z"/>
<path d="M4053 2375 c0 -38 2 -53 4 -32 2 20 2 52 0 70 -2 17 -4 1 -4 -38z"/>
<path d="M6928 2170 c-5 -146 -7 -341 -7 -435 2 -166 2 -168 10 -75 5 52 8
248 6 435 l-2 340 -7 -265z"/>
<path d="M3931 2314 c0 -11 3 -14 6 -6 3 7 2 16 -1 19 -3 4 -6 -2 -5 -13z"/>
<path d="M3923 2065 c0 -44 2 -61 4 -37 2 23 2 59 0 80 -2 20 -4 1 -4 -43z"/>
<path d="M3910 1913 c0 -13 5 -23 10 -23 13 0 13 11 0 30 -8 12 -10 11 -10 -7z"/>
<path d="M3902 1240 c0 -14 2 -19 5 -12 2 6 2 18 0 25 -3 6 -5 1 -5 -13z"/>
<path d="M3902 895 c0 -16 2 -22 5 -12 2 9 2 23 0 30 -3 6 -5 -1 -5 -18z"/>
<path d="M7066 505 c-11 -8 -15 -15 -9 -15 6 0 16 7 23 15 16 19 11 19 -14 0z"/>
<path d="M6980 460 c-8 -5 -10 -10 -5 -10 6 0 17 5 25 10 8 5 11 10 5 10 -5 0
-17 -5 -25 -10z"/>
<path d="M7025 440 c-16 -7 -17 -9 -3 -9 9 -1 20 4 23 9 7 11 7 11 -20 0z"/>
<path d="M6960 395 c0 -8 5 -15 10 -15 6 0 10 7 10 15 0 8 -4 15 -10 15 -5 0
-10 -7 -10 -15z"/>
<path d="M1250 5340 c0 -6 45 -10 118 -9 75 1 106 4 87 9 -46 12 -205 12 -205
0z"/>
<path d="M1123 5333 c9 -2 23 -2 30 0 6 3 -1 5 -18 5 -16 0 -22 -2 -12 -5z"/>
<path d="M1708 5333 c7 -3 16 -2 19 1 4 3 -2 6 -13 5 -11 0 -14 -3 -6 -6z"/>
<path d="M1960 5330 c0 -5 7 -10 16 -10 8 0 12 5 9 10 -3 6 -10 10 -16 10 -5
0 -9 -4 -9 -10z"/>
<path d="M2208 5313 c12 -2 30 -2 40 0 9 3 -1 5 -23 4 -22 0 -30 -2 -17 -4z"/>
<path d="M2505 5291 c3 -5 -1 -12 -7 -14 -9 -4 -9 -6 2 -6 8 -1 32 -18 53 -38
l39 -38 -31 46 c-17 26 -38 50 -47 53 -8 3 -13 2 -9 -3z"/>
<path d="M1690 5225 c14 -8 51 -14 82 -15 47 0 56 3 52 15 -5 12 -24 15 -83
15 -71 -1 -74 -2 -51 -15z"/>
<path d="M2058 5233 c7 -3 16 -2 19 1 4 3 -2 6 -13 5 -11 0 -14 -3 -6 -6z"/>
<path d="M922 5210 c10 -6 31 -7 55 -1 38 9 38 9 -17 10 -40 0 -50 -2 -38 -9z"/>
<path d="M530 5193 c0 -5 4 -14 9 -22 8 -12 12 -12 25 -2 9 7 13 17 10 22 -6
11 -44 12 -44 2z"/>
<path d="M2008 5183 c7 -3 16 -2 19 1 4 3 -2 6 -13 5 -11 0 -14 -3 -6 -6z"/>
<path d="M10630 5175 c-11 -13 -10 -14 4 -9 9 3 16 10 16 15 0 13 -6 11 -20
-6z"/>
<path d="M8700 5129 c-127 -14 -142 -21 -197 -96 l-50 -66 -110 -1 c-96 -1
-114 -4 -133 -21 -54 -49 -53 -38 -46 -575 4 -272 9 -522 12 -555 7 -103 24
-118 153 -137 60 -9 84 -18 116 -43 60 -48 71 -52 195 -71 147 -22 441 -25
520 -5 80 21 138 49 145 70 12 37 49 50 161 56 130 7 184 27 210 76 15 30 16
52 8 204 -5 93 -9 346 -9 560 -1 433 -1 436 -65 467 -28 14 -61 18 -166 18
l-132 0 -38 39 c-32 32 -52 41 -113 55 -155 35 -298 43 -461 25z m155 -39 c3
-5 45 -10 93 -10 95 0 207 -15 231 -31 12 -8 6 -9 -22 -5 -20 3 -36 2 -33 -2
2 -4 -86 -9 -196 -11 -145 -2 -199 0 -194 8 5 7 -5 11 -28 11 -19 0 -38 5 -41
10 -4 6 -11 8 -16 5 -5 -4 -9 -1 -9 6 0 8 16 10 51 7 33 -4 46 -2 37 4 -8 6 5
7 39 4 31 -4 54 -2 58 4 8 13 22 13 30 0z m329 -119 c3 -5 81 -9 173 -9 93 0
180 -5 196 -11 30 -11 47 -45 47 -91 l0 -29 -35 15 c-47 19 -81 18 -132 -7
-84 -41 -92 -68 -76 -266 4 -61 9 -80 17 -73 8 6 28 3 58 -7 42 -16 49 -16 85
-1 27 10 40 11 41 4 8 -48 10 -236 5 -409 -6 -201 -7 -210 -29 -237 -19 -21
-35 -29 -72 -33 -26 -3 -67 -10 -92 -15 -25 -6 -75 -15 -112 -20 -40 -6 -102
-26 -156 -51 -78 -36 -98 -41 -160 -41 -92 0 -205 24 -258 55 -68 40 -125 54
-249 65 -65 5 -122 13 -127 18 -5 5 -11 229 -13 499 -4 476 -4 491 15 508 14
13 29 16 56 12 46 -8 48 -10 48 -53 0 -33 1 -34 14 -17 7 10 31 48 53 84 21
37 53 79 70 93 l31 26 298 0 c164 0 301 -4 304 -9z m-756 -63 c-3 -20 -8 -22
-64 -19 -46 2 -65 -2 -78 -14 -26 -27 -23 31 -43 -759 -3 -147 -10 -252 -14
-243 -5 8 -14 239 -19 512 l-11 498 22 23 c21 22 31 24 116 24 91 0 94 -1 91
-22z m1127 -92 c24 -10 36 -23 40 -43 4 -15 9 -34 11 -41 10 -31 -10 -125 -31
-150 -19 -22 -31 -26 -75 -26 -48 0 -56 4 -86 36 -41 45 -52 97 -33 153 11 31
23 45 59 63 52 26 69 27 115 8z"/>
<path d="M9515 4930 c-3 -5 -1 -10 4 -10 6 0 11 5 11 10 0 6 -2 10 -4 10 -3 0
-8 -4 -11 -10z"/>
<path d="M8538 4702 c-3 -21 -2 -56 2 -77 7 -34 8 -28 9 38 1 83 -3 99 -11 39z"/>
<path d="M8580 4664 c0 -47 4 -73 10 -69 6 3 10 37 10 76 0 39 -4 69 -10 69
-6 0 -10 -32 -10 -76z"/>
<path d="M8650 4660 c0 -47 4 -80 10 -80 6 0 10 33 10 80 0 47 -4 80 -10 80
-6 0 -10 -33 -10 -80z"/>
<path d="M8708 4693 c-1 -27 0 -64 3 -83 4 -24 7 -8 8 48 1 89 -5 110 -11 35z"/>
<path d="M8760 4660 c0 -47 4 -80 10 -80 6 0 10 33 10 80 0 47 -4 80 -10 80
-6 0 -10 -33 -10 -80z"/>
<path d="M8820 4661 c0 -47 4 -81 10 -81 6 0 10 31 10 74 0 41 -4 78 -10 81
-6 4 -10 -23 -10 -74z"/>
<path d="M8881 4660 c2 -44 6 -80 11 -80 4 0 8 36 8 80 0 49 -4 80 -10 80 -7
0 -10 -29 -9 -80z"/>
<path d="M8957 4733 c-2 -5 -5 -43 -6 -85 -2 -66 0 -78 13 -78 13 0 16 14 16
79 0 70 -10 108 -23 84z"/>
<path d="M9093 4723 c-9 -3 -13 -30 -13 -84 0 -64 3 -79 15 -79 12 0 15 16 15
85 0 47 -1 85 -2 84 -2 0 -9 -3 -15 -6z"/>
<path d="M9188 4653 c2 -43 8 -82 13 -88 6 -6 9 21 7 74 -2 47 -8 86 -13 88
-7 2 -9 -25 -7 -74z"/>
<path d="M9229 4728 c-5 -26 -3 -150 3 -154 4 -3 8 31 8 75 0 45 -2 81 -5 81
-3 0 -5 -1 -6 -2z"/>
<path d="M9497 4784 c-13 -13 -7 -24 14 -24 11 0 19 5 17 12 -5 14 -22 21 -31
12z"/>
<path d="M9540 4690 c-8 -5 -23 -7 -32 -4 -13 4 -18 0 -18 -14 0 -10 3 -21 6
-25 8 -8 51 20 58 39 6 16 6 17 -14 4z"/>
<path d="M1364 4936 c-66 -31 -120 -79 -146 -130 -11 -23 -33 -52 -49 -66 -32
-28 -59 -95 -59 -145 0 -77 -13 -127 -34 -135 -72 -26 -88 -29 -76 -14 10 11
8 14 -11 14 -29 0 -43 -9 -52 -33 -5 -13 -11 -16 -23 -9 -12 7 -22 4 -34 -8
-10 -10 -41 -19 -79 -23 -67 -7 -105 -23 -135 -56 -15 -16 -21 -48 -30 -153
-6 -73 -15 -139 -19 -146 -5 -7 -5 -21 -2 -32 3 -11 3 -25 -2 -32 -9 -15 -35
-17 -44 -5 -6 9 5 91 16 120 5 10 3 17 -5 17 -7 0 -10 6 -7 14 3 8 3 17 -1 21
-7 6 -7 10 -10 49 -1 12 -5 16 -11 10 -10 -10 -22 -619 -13 -629 8 -8 11 -135
3 -135 -13 0 0 -176 16 -210 l16 -35 66 2 c36 2 506 4 1043 5 977 3 1025 5
994 35 -4 5 -115 8 -245 7 l-238 0 -7 95 c-3 53 -6 285 -6 516 0 380 -2 423
-18 455 -22 45 -53 60 -123 60 l-57 0 -4 69 c-4 80 -18 102 -83 127 -41 15
-44 19 -65 87 -32 104 -66 162 -132 222 -97 90 -232 119 -334 71z m121 -48
c57 -14 120 -53 147 -90 12 -18 31 -41 40 -50 45 -45 3 -46 -45 -1 -48 45
-129 90 -194 109 -69 20 -65 17 -57 37 6 17 23 16 109 -5z m125 -18 c21 -11
42 -25 46 -31 5 -9 -73 31 -95 48 -13 10 15 0 49 -17z m-263 -83 c0 -8 -6 -14
-14 -14 -9 0 -10 4 -2 14 6 7 12 13 14 13 1 0 2 -6 2 -13z m181 -29 c69 -37
91 -67 119 -158 14 -47 29 -88 32 -92 4 -5 46 -17 95 -27 l87 -19 -3 26 c-4
34 20 40 54 13 46 -37 41 -79 -29 -240 -5 -10 -2 -11 13 -3 23 11 214 15 231
4 9 -5 12 -137 14 -517 l2 -510 -731 0 c-402 1 -734 4 -738 7 -3 4 -1 240 6
525 13 572 10 554 77 572 37 11 103 15 103 7 0 -2 -11 -23 -24 -47 -26 -46
-42 -142 -32 -183 6 -23 56 -53 73 -43 5 3 15 -20 22 -51 27 -120 106 -209
247 -279 65 -32 107 -46 150 -50 76 -7 166 12 203 42 25 22 31 23 60 13 30
-12 33 -10 79 35 26 26 55 47 64 47 9 0 18 7 22 15 15 40 86 -3 86 -52 0 -21
-16 -43 -67 -91 -101 -95 -152 -123 -154 -84 -1 16 -2 15 -6 -1 -7 -27 -44
-17 -63 15 -15 28 -15 29 16 103 5 14 -7 7 -39 -20 -29 -25 -46 -48 -47 -62 0
-13 -5 -54 -12 -92 -11 -64 -10 -72 7 -91 78 -86 414 129 513 328 32 66 36 83
37 153 0 71 -2 81 -25 103 -14 14 -38 26 -55 28 -27 3 -34 -3 -72 -62 -24 -36
-49 -75 -57 -86 -9 -13 -31 -24 -55 -28 -22 -3 -56 -16 -75 -27 -42 -25 -45
-15 -14 44 18 33 23 58 23 119 -1 71 -3 80 -31 115 -17 21 -41 57 -53 81 -27
52 -103 113 -178 143 -46 18 -79 23 -158 23 -88 1 -107 -2 -157 -26 -73 -34
-135 -98 -182 -188 -38 -72 -59 -91 -78 -72 -7 7 -3 36 11 92 21 82 49 140 93
192 22 26 25 27 65 16 34 -10 55 -9 100 1 118 26 154 25 266 -8 126 -37 162
-38 292 -7 55 14 109 27 120 29 11 3 -4 5 -33 6 -30 0 -77 -6 -105 -14 -66
-18 -174 -25 -207 -12 -14 5 -54 17 -90 26 l-65 16 3 105 c3 112 17 184 33
175 5 -4 7 -10 4 -15 -3 -5 0 -12 6 -15 13 -9 38 24 39 51 0 11 3 24 8 28 12
13 122 -4 160 -26z m229 -44 c14 -30 23 -57 21 -59 -2 -2 -16 23 -30 55 -14
33 -24 60 -22 60 3 0 17 -25 31 -56z m-592 -142 c-17 -101 -25 -125 -25 -77 0
46 34 223 38 197 2 -13 -4 -67 -13 -120z m538 106 c5 -19 5 -19 -14 -2 -22 20
-25 36 -5 28 8 -3 16 -14 19 -26z m-308 -339 c37 -18 86 -51 109 -74 40 -38
96 -137 96 -167 0 -7 -11 11 -25 40 -13 28 -26 52 -29 52 -6 0 4 -31 15 -45 4
-5 12 -35 17 -65 9 -46 8 -56 -6 -66 -9 -7 -21 -10 -26 -7 -5 4 -6 1 -2 -5 4
-7 2 -12 -4 -12 -7 0 -3 -12 8 -27 18 -27 18 -30 2 -76 -23 -67 -100 -153
-148 -167 -56 -15 -123 -12 -183 9 -128 45 -212 111 -258 203 -27 53 -31 72
-31 143 0 134 53 213 184 277 55 27 68 29 138 25 60 -4 91 -12 143 -38z m212
-281 c-3 -8 -6 -5 -6 6 -1 11 2 17 5 13 3 -3 4 -12 1 -19z m10 -65 c-3 -10 -5
-2 -5 17 0 19 2 27 5 18 2 -10 2 -26 0 -35z m334 0 c16 -41 6 -121 -22 -183
-49 -106 -244 -267 -377 -311 -58 -19 -65 -20 -80 -6 -14 14 -14 20 0 54 9 24
20 37 29 34 8 -2 37 -6 65 -8 60 -6 104 13 191 84 77 63 98 88 133 158 24 48
30 74 31 133 2 75 12 91 30 45z m-51 -62 c0 -25 -10 -66 -22 -91 l-21 -45 -8
32 c-5 18 -18 38 -29 46 -19 13 -19 15 13 75 30 57 33 60 49 45 12 -11 18 -31
18 -62z m-325 -90 c-9 -18 -13 -36 -10 -41 6 -11 -22 -26 -31 -17 -5 5 49 97
54 92 2 -2 -4 -17 -13 -34z m115 22 c-1 -11 -90 -67 -96 -60 -7 7 65 67 81 67
8 0 15 -3 15 -7z"/>
<path d="M1579 4343 c-2 -16 3 -68 8 -76 5 -9 53 39 53 53 0 18 -59 40 -61 23z"/>
<path d="M1853 4218 c-3 -6 0 -13 6 -17 9 -6 6 -20 -8 -55 -20 -45 -20 -46 -2
-36 29 15 61 60 61 85 0 16 -7 24 -25 27 -14 3 -28 1 -32 -4z"/>
<path d="M1290 4330 c0 -6 7 -10 15 -10 8 0 15 2 15 4 0 2 -7 6 -15 10 -8 3
-15 1 -15 -4z"/>
<path d="M1400 3991 c0 -6 4 -13 10 -16 6 -3 7 1 4 9 -7 18 -14 21 -14 7z"/>
<path d="M1364 3877 c1 -93 3 -103 18 -99 10 2 15 8 12 14 -3 5 1 20 10 33 22
33 20 78 -4 100 -11 10 -20 26 -20 37 0 10 -4 18 -9 18 -5 0 -8 -46 -7 -103z
m33 1 c-3 -8 -6 -5 -6 6 -1 11 2 17 5 13 3 -3 4 -12 1 -19z"/>
<path d="M1280 3780 c0 -5 7 -10 16 -10 8 0 12 5 9 10 -3 6 -10 10 -16 10 -5
0 -9 -4 -9 -10z"/>
<path d="M2155 4905 c0 -14 6 -25 13 -25 6 0 12 4 12 8 0 5 -6 16 -12 25 -12
16 -13 15 -13 -8z"/>
<path d="M10787 4674 c-4 -4 -7 -14 -7 -23 0 -11 3 -12 11 -4 6 6 10 16 7 23
-2 6 -7 8 -11 4z"/>
<path d="M10781 4623 c0 -5 4 -17 9 -28 8 -18 9 -17 9 8 1 15 -3 27 -9 27 -5
0 -10 -3 -9 -7z"/>
<path d="M1040 4470 c-9 -6 -10 -10 -3 -10 6 0 15 5 18 10 8 12 4 12 -15 0z"/>
<path d="M2464 4358 c39 -48 122 -174 163 -246 19 -35 37 -61 39 -59 3 2 -23
53 -57 113 -62 108 -146 224 -163 224 -5 0 3 -15 18 -32z"/>
<path d="M547 4244 c-4 -4 -7 -14 -7 -23 0 -11 3 -12 11 -4 6 6 10 16 7 23 -2
6 -7 8 -11 4z"/>
<path d="M2451 4165 c0 -5 8 -37 19 -70 17 -48 19 -52 14 -20 -6 39 -32 109
-33 90z"/>
<path d="M2670 4037 c0 -2 13 -30 28 -63 16 -32 37 -80 48 -106 10 -27 22 -48
27 -48 12 0 9 6 -42 115 -41 88 -61 120 -61 102z"/>
<path d="M2790 3790 c0 -8 5 -22 10 -30 9 -13 10 -13 10 0 0 8 -5 22 -10 30
-9 13 -10 13 -10 0z"/>
<path d="M7398 2883 c6 -2 18 -2 25 0 6 3 1 5 -13 5 -14 0 -19 -2 -12 -5z"/>
<path d="M8808 2873 c6 -2 18 -2 25 0 6 3 1 5 -13 5 -14 0 -19 -2 -12 -5z"/>
<path d="M8860 2876 c0 -2 15 -6 34 -8 19 -2 32 0 30 4 -5 8 -64 12 -64 4z"/>
<path d="M8998 2873 c7 -3 16 -2 19 1 4 3 -2 6 -13 5 -11 0 -14 -3 -6 -6z"/>
<path d="M8270 2799 c0 -4 -10 -10 -22 -12 -13 -2 10 -5 51 -6 64 -1 72 1 61
14 -13 15 -90 19 -90 4z"/>
<path d="M8655 2790 l-80 -6 92 -2 c50 -1 94 2 97 6 5 9 -4 9 -109 2z"/>
<path d="M3714 2685 c3 -22 6 -66 6 -98 0 -32 4 -56 9 -53 12 8 2 168 -12 181
-6 7 -8 -3 -3 -30z"/>
<path d="M9295 2410 c-33 -5 -94 -13 -135 -19 -41 -6 -205 -13 -365 -14 -288
-3 -291 -3 -374 -31 -46 -16 -96 -40 -112 -55 -28 -25 -29 -31 -39 -166 -6
-77 -21 -282 -35 -455 -14 -173 -25 -342 -25 -375 l0 -60 -77 -1 c-158 -1
-296 -47 -340 -112 -52 -78 32 -144 217 -171 702 -103 974 -128 1290 -118 333
11 643 81 707 159 6 7 14 38 18 69 6 50 4 59 -14 76 -33 31 -85 42 -234 49
-125 6 -136 9 -123 23 32 37 35 86 33 516 l-2 430 -28 60 c-16 33 -38 71 -50
84 -23 25 -217 122 -239 120 -7 -1 -40 -5 -73 -9z m-690 -66 c-27 -9 -65 -15
-83 -15 -20 0 -30 -4 -26 -10 3 -6 0 -10 -7 -8 -25 3 -37 -1 -53 -17 -9 -8
-28 -17 -43 -20 -28 -5 -28 -5 -6 11 23 16 101 52 143 65 14 5 48 8 75 8 l50
0 -50 -14z m926 -40 c67 -34 129 -140 98 -168 -9 -8 -11 -7 -6 5 3 9 0 16 -8
16 -7 0 -11 -6 -9 -12 3 -6 0 -22 -5 -36 -9 -22 -10 -22 -10 -3 -2 49 -35 114
-85 168 -47 49 -50 55 -27 49 14 -3 38 -12 52 -19z m-991 -49 c0 -10 -10 -15
-32 -14 l-33 1 30 13 c17 8 31 14 33 15 1 0 2 -7 2 -15z m-64 -37 c39 2 164
-24 177 -37 14 -14 25 -83 33 -206 6 -95 5 -112 -10 -124 -15 -12 -16 -7 -17
55 -2 85 -15 214 -17 164 -2 -30 -8 -39 -37 -54 -28 -15 -40 -17 -58 -9 -13 6
-59 14 -103 18 -113 10 -114 10 -114 56 0 31 4 39 18 39 10 0 27 -7 38 -15 25
-19 83 -19 90 0 4 8 12 15 19 15 7 0 18 -7 25 -15 7 -8 27 -15 45 -15 25 0 34
5 38 21 5 20 5 20 -13 4 -23 -21 -50 -13 -50 15 0 14 7 20 23 21 20 1 20 2 2
6 -11 3 -22 8 -25 12 -6 8 -57 41 -64 41 -2 0 -7 -16 -10 -35 -7 -35 -36 -51
-36 -19 0 8 -4 13 -9 9 -5 -3 -11 5 -13 17 -4 32 -38 37 -38 6 0 -32 -15 -52
-34 -45 -13 5 -14 11 -5 34 18 48 29 55 73 47 23 -4 55 -7 72 -6z m227 -35
c-3 -7 -9 -10 -14 -7 -14 8 -11 21 5 21 8 0 12 -6 9 -14z m431 -54 c47 -22 51
-55 51 -444 0 -351 -8 -462 -35 -489 -6 -6 -18 -5 -35 2 l-25 12 0 382 c0 336
6 548 16 548 2 0 14 -5 28 -11z m-207 -33 c-11 -12 -32 -13 -93 -8 -90 7 -66
19 44 21 55 1 62 -1 49 -13z m-218 -666 l2 -205 -43 -17 c-39 -16 -51 -16
-133 -3 -120 18 -219 41 -255 60 -29 15 -30 18 -30 88 0 83 35 446 44 454 9 9
7 -60 -4 -242 -6 -88 -8 -179 -4 -202 6 -40 8 -42 48 -48 22 -4 96 -20 164
-36 151 -35 162 -36 162 -6 0 49 -10 64 -39 59 -14 -2 -69 10 -120 27 -52 17
-104 31 -117 31 -15 0 -24 6 -24 16 0 11 5 14 18 9 22 -9 153 -34 212 -41 24
-3 47 -7 51 -10 13 -8 19 63 19 237 0 145 3 179 14 179 7 0 13 8 13 18 0 9 2
24 3 32 6 29 17 -197 19 -400z m914 -181 c-6 -6 -7 3 -4 23 4 28 6 29 9 9 2
-13 0 -27 -5 -32z"/>
<path d="M8625 2151 c-3 -5 -1 -12 4 -15 5 -3 11 1 15 9 6 16 -9 21 -19 6z"/>
<path d="M8555 2120 c4 -6 11 -8 16 -5 14 9 11 15 -7 15 -8 0 -12 -5 -9 -10z"/>
<path d="M1334 2299 c-10 -17 -86 -49 -116 -49 -18 0 -28 5 -28 15 0 27 -43
16 -89 -23 -77 -65 -109 -76 -142 -46 -16 14 -18 14 -28 -4 -13 -25 -5 -49 20
-63 24 -13 75 13 147 75 30 25 60 46 67 46 8 0 25 -11 39 -25 37 -37 81 -34
122 10 19 18 34 43 34 55 0 22 -15 27 -26 9z"/>
<path d="M3185 2253 c-32 -8 -84 -51 -100 -83 -8 -15 -20 -60 -26 -98 l-12
-70 -36 5 c-20 4 -46 13 -58 21 -46 29 -113 -15 -113 -74 0 -17 11 -62 25 -98
30 -79 29 -76 8 -76 -37 -1 -102 -39 -117 -69 -25 -47 -20 -74 23 -123 48 -54
57 -96 37 -163 -17 -53 -21 -125 -8 -125 14 1 130 186 167 267 21 45 44 84 51
87 19 7 18 26 -1 26 -8 0 -22 11 -31 25 -9 14 -23 25 -30 25 -16 0 -34 39 -34
71 0 14 12 25 36 35 l37 15 43 -42 c61 -60 56 -78 -19 -80 -30 -1 -30 -1 -7
-8 14 -4 44 -1 68 8 34 11 51 11 81 2 56 -16 97 -14 144 10 121 61 180 194
143 320 -20 72 -64 131 -121 165 -45 26 -110 38 -150 27z m135 -48 c83 -43
131 -188 96 -288 -32 -90 -102 -147 -179 -147 -81 0 -177 67 -177 124 0 37 12
38 30 3 34 -65 129 -111 198 -96 91 19 144 143 112 260 -6 22 -28 53 -55 78
-37 34 -51 41 -85 41 -54 0 -72 -11 -120 -71 -39 -50 -40 -50 -40 -21 0 93
131 163 220 117z m-2 -83 c15 -14 33 -25 41 -24 7 2 10 -1 6 -7 -3 -6 1 -21 9
-33 40 -57 6 -178 -62 -220 -56 -35 -151 -2 -193 66 l-18 30 26 28 27 29 -18
33 c-14 26 -15 38 -7 54 38 71 139 95 189 44z m-388 -281 c0 -17 -12 -41 -21
-41 -10 0 -12 33 -2 43 9 10 23 9 23 -2z m-36 -146 c11 -8 18 -17 15 -19 -2
-3 -15 4 -29 14 -14 11 -20 20 -15 19 6 0 19 -6 29 -14z m56 -50 c13 -14 21
-25 18 -25 -2 0 -15 11 -28 25 -13 14 -21 25 -18 25 2 0 15 -11 28 -25z"/>
<path d="M1500 2218 c-20 -21 -27 -48 -13 -48 4 0 24 12 45 27 28 19 35 29 26
34 -21 14 -36 10 -58 -13z"/>
<path d="M2840 2216 c0 -15 67 -65 88 -66 29 0 29 25 -1 45 -25 16 -87 31 -87
21z"/>
<path d="M848 2097 c-21 -18 -44 -48 -52 -67 -8 -19 -37 -60 -65 -90 -81 -89
-89 -161 -24 -216 24 -20 25 -26 19 -77 -9 -73 -23 -91 -58 -78 -26 10 -27 9
-18 -14 19 -51 33 -64 61 -58 23 4 30 0 42 -23 8 -16 17 -42 21 -58 12 -48 45
-86 93 -107 82 -35 134 -20 117 33 -5 16 -12 18 -54 12 -43 -6 -51 -4 -74 19
-21 21 -26 36 -26 73 0 36 -3 45 -14 41 -9 -4 -27 8 -46 30 -33 38 -33 30 -8
150 11 51 11 52 -21 78 -40 34 -40 69 -1 124 40 54 53 58 91 27 33 -28 69 -34
69 -12 0 20 -21 31 -30 16 -5 -8 -10 -9 -14 -2 -7 12 8 57 23 67 23 13 9 25
-28 25 -22 0 -42 4 -45 8 -8 13 55 74 70 68 10 -4 14 4 14 29 0 19 -1 35 -2
35 -2 -1 -20 -15 -40 -33z"/>
<path d="M1290 2104 c-48 -17 -74 -34 -66 -42 3 -2 -21 -21 -52 -42 -120 -79
-201 -188 -253 -338 -17 -49 -17 -56 -3 -84 17 -34 37 -33 42 3 2 13 7 27 10
30 9 9 485 -10 493 -19 4 -4 9 -139 11 -300 l3 -294 -25 -20 c-20 -16 -34 -19
-74 -14 -27 3 -56 12 -66 21 -12 11 -19 12 -28 3 -17 -17 -28 0 -14 22 32 53
-2 99 -44 59 -36 -33 -68 -20 -96 40 -23 52 -37 61 -77 51 l-24 -5 26 -12 c15
-7 40 -34 57 -61 27 -45 83 -91 163 -134 23 -13 55 -18 117 -18 127 0 154 7
169 41 11 24 18 29 49 29 81 0 209 87 253 172 25 49 31 51 83 34 35 -12 51
-13 81 -4 41 13 109 84 119 124 7 27 -3 49 -12 26 -9 -28 -68 -85 -99 -98 -31
-13 -93 -9 -93 6 0 4 18 12 40 19 53 16 78 52 60 86 -7 14 -17 25 -22 25 -11
0 -10 41 2 60 8 13 11 12 24 -5 14 -19 15 -19 22 -2 9 24 -2 179 -17 232 -12
43 -101 194 -155 261 -43 53 -128 111 -201 136 -81 29 -336 36 -403 12z m397
-50 c95 -32 182 -109 240 -213 38 -66 36 -80 -12 -81 -11 0 -56 -9 -100 -20
-44 -11 -126 -23 -181 -26 l-102 -7 -4 179 c-2 98 -2 183 0 188 6 12 101 0
159 -20z m-248 -3 c12 -7 16 -47 19 -181 l5 -171 -69 6 c-38 3 -147 7 -241 8
-130 1 -173 5 -173 15 0 6 5 12 11 12 6 0 8 7 5 16 -3 8 -1 25 5 36 17 31 80
98 93 98 6 0 20 12 31 27 32 43 52 58 113 88 86 42 175 62 201 46z m541 -321
c0 -5 -7 -7 -15 -4 -8 4 -15 8 -15 10 0 2 7 4 15 4 8 0 15 -4 15 -10z m7 -103
c-4 -24 -13 -65 -22 -91 -9 -25 -13 -52 -9 -59 4 -6 4 -9 -1 -5 -4 4 -14 -4
-22 -18 -15 -30 -16 -37 -4 -30 4 3 8 -10 7 -28 -1 -26 -11 -44 -46 -78 -100
-97 -180 -189 -180 -206 0 -28 -63 -56 -145 -65 -20 -2 -20 4 -20 288 l0 290
155 6 c91 4 176 13 205 22 84 25 89 24 82 -26z"/>
<path d="M3130 1675 c-29 -35 17 -68 61 -43 21 12 26 13 23 3 -10 -25 -62 -39
-102 -27 -44 13 -83 6 -75 -14 3 -7 20 -16 39 -20 44 -8 47 -15 30 -61 -7 -21
-22 -67 -31 -103 -10 -36 -23 -74 -30 -85 -6 -11 -13 -44 -14 -74 -2 -45 4
-65 30 -115 61 -113 38 -217 -54 -246 l-47 -15 30 -25 c29 -24 29 -25 9 -35
-19 -11 -17 -12 19 -23 22 -7 42 -12 46 -12 13 0 5 31 -9 36 -13 5 -11 11 10
32 38 38 63 83 75 136 10 46 9 51 -40 155 -40 82 -49 112 -43 129 l9 23 40
-29 c42 -31 104 -133 104 -172 0 -13 5 -20 13 -17 19 6 12 70 -12 119 -13 24
-41 62 -64 86 -23 23 -36 42 -30 42 6 0 11 27 11 70 1 83 8 110 33 128 11 7
19 18 19 24 0 6 19 28 43 50 23 22 34 35 25 28 -16 -11 -18 -9 -18 11 0 13 -9
30 -19 36 -16 10 -20 9 -24 -8 -3 -10 -13 -19 -22 -19 -13 0 -16 6 -13 25 6
28 -3 32 -22 10z"/>
<path d="M656 1408 c-20 -23 -36 -46 -36 -50 0 -5 -4 -6 -10 -3 -23 14 -8 -25
16 -42 19 -14 27 -32 33 -68 8 -58 36 -110 67 -124 26 -12 86 -132 73 -145
-17 -18 -9 -44 14 -50 29 -7 91 10 107 29 7 8 20 15 28 15 14 0 15 2 1 15 -14
15 -37 12 -91 -10 -11 -5 -18 0 -23 17 -20 64 -69 158 -82 158 -9 0 -13 6 -10
14 4 10 1 13 -8 10 -18 -7 -37 30 -30 59 4 15 -1 32 -14 49 -26 33 -27 73 -1
120 28 52 8 56 -34 6z"/>
<path d="M2897 861 c-7 -33 -59 -68 -144 -95 -44 -15 -53 -22 -67 -57 -9 -22
-16 -58 -16 -82 0 -68 -19 -119 -66 -174 -48 -56 -50 -83 -5 -83 20 0 23 2 11
10 -13 8 -12 11 5 24 25 19 33 20 32 4 -3 -82 22 -89 72 -22 55 73 106 96 228
105 89 6 111 5 159 -12 61 -22 94 -18 94 11 0 16 -4 17 -28 8 -32 -13 -74 -5
-96 17 -11 12 -21 13 -41 5 -14 -5 -62 -10 -106 -10 -114 0 -164 -23 -219
-101 -23 -32 -44 -59 -47 -59 -11 0 7 137 23 175 8 21 19 74 22 118 l7 80 50
17 c28 10 69 27 92 39 23 11 53 21 66 21 22 0 24 4 23 38 -2 56 -39 74 -49 23z"/>
<path d="M970 816 c0 -18 19 -33 53 -41 23 -6 27 -4 27 14 0 14 -9 25 -26 31
-35 14 -54 12 -54 -4z"/>
<path d="M1097 775 c21 -28 78 -54 104 -48 21 6 65 51 57 58 -3 3 -21 -4 -41
-15 -33 -19 -38 -20 -70 -7 -19 8 -38 20 -41 26 -4 6 -12 11 -17 11 -5 0 -2
-11 8 -25z"/>
<path d="M8723 266 c0 -12 5 -13 20 -4 16 8 23 7 31 -5 7 -8 20 -17 31 -20 17
-4 17 -5 3 -6 -10 0 -18 -5 -18 -9 0 -4 16 -6 35 -4 26 3 35 0 35 -11 0 -18
-26 -40 -53 -44 -26 -4 -34 -12 -21 -21 5 -4 11 -16 11 -28 2 -28 43 -114 54
-114 12 0 11 17 -1 22 -5 1 -7 14 -3 26 4 18 8 20 14 10 5 -7 9 -23 9 -35 0
-13 5 -23 10 -23 6 0 10 8 10 19 0 30 -21 81 -31 75 -16 -9 -10 33 6 46 11 9
13 16 5 24 -16 16 -12 26 10 26 12 0 20 7 20 16 0 13 7 15 35 10 44 -9 125 3
122 16 -1 6 4 13 11 15 8 3 10 -1 6 -11 -8 -21 10 -20 27 1 10 11 10 14 2 9
-7 -4 -13 -2 -13 3 0 6 6 11 13 12 6 0 3 4 -8 9 -11 5 -99 9 -196 9 -147 1
-176 -1 -176 -13z m94 -158 c-3 -8 -6 -5 -6 6 -1 11 2 17 5 13 3 -3 4 -12 1
-19z"/>
<path d="M9125 270 c3 -5 11 -10 16 -10 6 0 7 5 4 10 -3 6 -11 10 -16 10 -6 0
-7 -4 -4 -10z"/>
<path d="M7200 186 c0 -14 4 -27 8 -30 5 -3 9 8 9 24 0 17 -4 30 -9 30 -4 0
-8 -11 -8 -24z"/>
<path d="M8768 193 c7 -3 16 -2 19 1 4 3 -2 6 -13 5 -11 0 -14 -3 -6 -6z"/>
<path d="M9032 170 c-8 -14 -10 -26 -3 -38 8 -14 10 -13 16 10 10 37 3 52 -13
28z"/>
<path d="M9157 163 c-12 -12 -7 -22 8 -17 8 4 15 10 15 15 0 11 -14 12 -23 2z"/>
<path d="M9196 158 c3 -5 10 -6 15 -3 13 9 11 12 -6 12 -8 0 -12 -4 -9 -9z"/>
<path d="M9083 133 c9 -2 23 -2 30 0 6 3 -1 5 -18 5 -16 0 -22 -2 -12 -5z"/>
<path d="M9159 123 c-13 -16 -12 -17 4 -4 16 13 21 21 13 21 -2 0 -10 -8 -17
-17z"/>
<path d="M7208 108 c-2 -13 -1 -39 3 -58 5 -30 7 -26 8 23 1 58 -4 74 -11 35z"/>
<path d="M6832 107 c-8 -10 -5 -13 13 -15 13 -1 27 3 31 10 4 7 3 8 -4 4 -7
-4 -12 -2 -12 3 0 15 -15 14 -28 -2z"/>
<path d="M9101 68 c-14 -23 -14 -23 8 -4 22 20 25 26 13 26 -4 0 -13 -10 -21
-22z"/>
<path d="M6821 64 c0 -11 3 -14 6 -6 3 7 2 16 -1 19 -3 4 -6 -2 -5 -13z"/>
<path d="M7130 59 c0 -5 5 -7 10 -4 6 3 10 8 10 11 0 2 -4 4 -10 4 -5 0 -10
-5 -10 -11z"/>
<path d="M6900 38 c0 -4 9 -8 20 -8 11 0 20 4 20 9 0 6 -9 9 -20 8 -11 -1 -20
-5 -20 -9z"/>
<path d="M9045 24 c-20 -16 -25 -24 -14 -24 16 0 56 37 48 44 -2 2 -17 -7 -34
-20z"/>
</g>
</svg>
